<?xml version="1.0" encoding="utf-8"?>
<!-- Generator: Adobe Illustrator 24.0.1, SVG Export Plug-In . SVG Version: 6.00 Build 0)  -->
<svg version="1.1" id="Layer_1" xmlns="http://www.w3.org/2000/svg" xmlns:xlink="http://www.w3.org/1999/xlink" x="0px" y="0px"
	 viewBox="0 0 381.1 380.4" style="enable-background:new 0 0 381.1 380.4;" xml:space="preserve">
<style type="text/css">
	.st0{display:none;}
	.st1{display:inline;fill:none;stroke:#DD2638;stroke-width:3;stroke-miterlimit:10;}
	.st2{fill:#FFFFFF;}
	.st3{fill:#F32B38;}
	.st4{fill:#064789;}
</style>
<g id="Layer_5" class="st0">
	<circle class="st1" cx="189.9" cy="192.7" r="136.2"/>
</g>
<g id="Layer_1_1_">
	<circle class="st2" cx="190.5" cy="191.8" r="106.2"/>
	<path class="st3" d="M57.9,166.5c0,0,5.7-39.8,26.2-38.2c18.4,1.3,17.5,13.4,14.4,21.9s-12.7,29.4-6,60.2c0,0,4,19.2,20.9,19.2
		s13.1-21.5,13.1-21.5l-0.6-15c0,0,0.8-4.5,5.2-4.5c4.4,0.1,7.2-1,12.9,19.9s32.5,68,78.9,63.5c46.3-4.5,62.3-39.2,62.3-39.2
		s-5.5,18.3,8.4,22c14,3.6,24.7-14,24.7-14S280.5,327,194,327c-74.7,0.2-108.8-45.5-122.7-70.7C47.3,212.4,57.9,166.5,57.9,166.5z"
		/>
	<path class="st4" d="M325.2,218c0,0-5.7,39.8-26.2,38.2c-18.4-1.3-17.5-13.4-14.4-21.9s12.7-29.4,6-60.2c0,0-4-19.2-20.9-19.2
		s-13.1,21.5-13.1,21.5l0.6,15c0,0-0.8,4.5-5.2,4.5c-4.4-0.1-7.2,1-12.9-19.9s-32.5-68-78.9-63.5c-46.3,4.5-62,38.5-62,38.5
		s5.2-17.6-8.7-21.2c-14-3.6-24.7,14-24.7,14s37.7-86.2,124.3-86.2c74.7-0.2,108.8,45.5,122.7,70.7C335.8,172.1,325.2,218,325.2,218
		z"/>
</g>
</svg>
