<?xml version="1.0" encoding="utf-8"?>
<!-- Generator: Adobe Illustrator 24.0.1, SVG Export Plug-In . SVG Version: 6.00 Build 0)  -->
<svg version="1.1" id="Layer_1" xmlns="http://www.w3.org/2000/svg" xmlns:xlink="http://www.w3.org/1999/xlink" x="0px" y="0px"
	 viewBox="0 0 1837.9 380.4" style="enable-background:new 0 0 1837.9 380.4;" xml:space="preserve">
<style type="text/css">
	.st0{fill:#FFFFFF;}
	.st1{fill:#F32B38;}
	.st2{fill:#064789;}
</style>
<g id="Layer_2_1_">
	<g id="Layer_1-2">
		<path class="st0" d="M694.8,186.9c0,26-3.6,48.5-10.7,67.7s-17.3,35.1-30.4,47.7c-13.1,12.7-29,22.1-47.7,28.3
			c-18.7,6.2-39.6,9.3-62.7,9.3c-10.1,0-21.5-0.4-34.2-1.2c-12.2-0.7-24.3-2.9-36.1-6.4c-13.3-4.1-20-11.4-20-21.8V66.3
			c0-5.1,1.3-8.9,3.8-11.6s6.5-4.8,11.9-6.4c10.8-3.4,22-5.4,33.2-6.2c12.4-0.9,24.7-1.4,37-1.4c23.1,0,44.2,3.1,63.4,9.3
			s35.6,15.4,49.2,27.5c13.6,12.2,24.2,27.4,31.8,45.6C691,141.2,694.8,162.5,694.8,186.9z M655.4,186.9c0-20.3-3.1-37.6-9.3-52
			s-14.6-26.2-25.2-35.4c-10.8-9.3-23.4-16.2-37-20.2c-14.7-4.4-30-6.5-45.4-6.4c-10.1,0-18.9,0.3-26.4,1
			c-6.9,0.6-13.8,1.5-20.7,2.8v226c8,2,16.2,3.2,24.5,3.8c8.7,0.7,17.6,1,26.8,1c37.3,0,65.4-10.1,84.3-30.4
			S655.4,226.8,655.4,186.9z"/>
		<path class="st0" d="M946.5,224.9c0,17.7-2.5,33.7-7.6,48c-4.6,13.5-12,26-21.6,36.6c-9.4,10.2-21,18.1-34,23.3
			c-13.3,5.4-28.2,8.1-44.6,8.1c-16.5,0-31.3-2.7-44.6-8.1c-13-5.2-24.6-13.1-34.2-23.3c-9.7-10.5-17.2-23-21.9-36.6
			c-5.1-14.2-7.6-30.2-7.6-48s2.6-33.7,7.8-48c4.8-13.6,12.3-26,22.1-36.6c9.6-10.2,21.2-18.1,34.2-23.2c13.3-5.4,28-8.1,44.2-8.1
			c16.1,0,30.9,2.7,44.2,8.1c12.9,5.1,24.5,13.1,34,23.3c9.6,10.6,17.1,23.1,21.8,36.6C943.8,191.2,946.5,207.1,946.5,224.9z
			 M838.6,140.3c-21.5,0-38.5,7.4-50.8,22.3c-12.3,14.9-18.5,35.6-18.5,62.2c0,26.9,6.1,47.7,18.3,62.4s29.2,22.1,51,22.1
			c21.9,0,38.8-7.4,50.8-22.3s18-35.6,18.1-62.2c0-26.6-6.1-47.3-18.3-62.2C877,147.8,860.2,140.4,838.6,140.3L838.6,140.3z"/>
		<path class="st0" d="M1128.1,152.7c-10-8.2-23.3-12.3-40.1-12.4c-12.7,0-23.9,1.6-33.7,4.7c-8.8,2.7-17.2,6.4-25.2,10.9v177.7
			c-2.3,0.9-4.7,1.6-7.1,2.1c-3.4,0.8-6.9,1.2-10.4,1.2c-13.6,0-20.4-5.8-20.4-17.2V157.9c0-6.6,1.3-12.1,4-16.4
			c2.7-4.3,7.4-8.5,14-12.6c8.2-5.1,19.2-9.6,32.8-13.8c13.6-4.1,29-6.2,46.1-6.2c28.8,0,51.5,6.5,68.1,19.5s24.9,33.4,24.9,61.3
			v144c-2.4,0.9-4.9,1.6-7.4,2.1c-3.3,0.8-6.8,1.2-10.2,1.2c-13.6,0-20.4-5.7-20.4-17.1V191.6
			C1143.1,173.9,1138.1,160.9,1128.1,152.7z"/>
		<path class="st0" d="M1315.9,109c27.6,0,49.4,6.2,65.5,18.5s24.2,31.8,24.2,58.4v112.6c0,7-1.3,12.3-4,15.9s-6.7,7-12.1,10.2
			c-7.6,4.4-17.6,8.3-30.2,11.6c-12.5,3.3-26.8,5-43,4.9c-29.8,0-52.8-5.9-69.1-17.6c-16.3-11.7-24.5-28.6-24.5-50.8
			c0-20.9,6.8-36.6,20.4-47.3s32.8-17.2,57.5-19.7l67.4-6.7v-13.3c0-15.8-4.8-27.4-14.3-34.6s-22.3-10.9-38.5-10.9
			c-12.7-0.1-25.4,1.8-37.5,5.7c-10.8,3.4-21.3,7.7-31.3,12.9c-2.6-2.3-4.9-4.8-6.9-7.6s-3.1-6.1-3.1-9.5c-0.2-3.9,1-7.7,3.3-10.9
			c2.2-2.8,5.7-5.5,10.4-8.1c9.3-4.7,19.2-8.1,29.4-10.2C1291.7,110.2,1303.8,109,1315.9,109z M1316.4,309.9c13.3,0,24.3-1.3,33-4
			s15-5.3,18.8-7.8v-68.9l-58.9,6.2c-16.5,1.6-28.7,5.3-36.6,11.2c-7.9,5.8-11.9,14.5-11.9,25.9c0,12,4.6,21.3,13.8,27.8
			C1283.8,306.6,1297.7,309.9,1316.4,309.9L1316.4,309.9z"/>
		<path class="st0" d="M1498.7,333.7c-2.3,0.9-4.7,1.6-7.1,2.1c-3.4,0.8-6.9,1.2-10.4,1.2c-13.6,0-20.4-5.7-20.4-17.1v-161
			c0-7.3,1.3-13,4-17.3s7.2-8.5,13.5-12.6c8.2-5.4,19.4-10,33.5-14s30-5.9,47.7-5.9c25.3,0,38,6.3,38,19c0,3-0.5,6-1.4,8.8
			c-0.8,2.5-2.1,4.9-3.8,6.9c-3.2-0.6-7.3-1.3-12.3-1.9c-5-0.6-10.1-1-15.2-1c-14.6,0-27.4,1.5-38.5,4.5s-20.3,6.6-27.5,10.7
			L1498.7,333.7L1498.7,333.7z"/>
		<path class="st0" d="M1826.9,224.9c0,17.7-2.5,33.7-7.6,48c-4.6,13.5-12,26-21.6,36.6c-9.4,10.2-21,18.1-34,23.3
			c-13.3,5.4-28.2,8.1-44.6,8.1c-16.5,0-31.3-2.7-44.6-8.1c-13-5.2-24.6-13.1-34.2-23.3c-9.7-10.5-17.2-23-21.8-36.6
			c-5.1-14.2-7.6-30.2-7.6-48c0-17.7,2.6-33.7,7.8-48c4.8-13.6,12.3-26,22.1-36.6c9.6-10.2,21.2-18.1,34.2-23.2
			c13.3-5.4,28-8.1,44.2-8.1s30.9,2.7,44.2,8.1c12.9,5.1,24.5,13.1,34,23.3c9.6,10.6,17.1,23.1,21.8,36.6
			C1824.2,191.2,1826.9,207.1,1826.9,224.9z M1719.1,140.3c-21.5,0-38.5,7.4-50.8,22.3c-12.4,14.9-18.5,35.6-18.5,62.2
			c0,26.9,6.1,47.7,18.3,62.4c12.2,14.7,29.2,22.1,51.1,22.1c21.8,0,38.8-7.4,50.8-22.3s18-35.6,18-62.2s-6.1-47.3-18.3-62.2
			C1757.4,147.8,1740.6,140.4,1719.1,140.3L1719.1,140.3z"/>
	</g>
</g>
<g id="Layer_1_1_">
	<circle class="st0" cx="194.7" cy="190.1" r="147.6"/>
	<path class="st1" d="M10.4,155c0,0,7.9-55.3,36.4-53.1c25.6,1.8,24.3,18.6,20,30.4s-17.6,40.9-8.3,83.7c0,0,5.6,26.7,29,26.7
		s18.2-29.9,18.2-29.9l-0.8-20.8c0,0,1.1-6.3,7.2-6.3c6.1,0.1,10-1.4,17.9,27.7s45.2,94.5,109.6,88.2c64.3-6.3,86.6-54.5,86.6-54.5
		s-7.6,25.4,11.7,30.6c19.5,5,34.3-19.5,34.3-19.5S319.8,378,199.5,378C95.7,378.3,48.4,314.8,29,279.7
		C-4.3,218.7,10.4,155,10.4,155z"/>
	<path class="st2" d="M381.9,226.5c0,0-7.9,55.3-36.4,53.1c-25.6-1.8-24.3-18.6-20-30.4s17.6-40.9,8.3-83.7c0,0-5.6-26.7-29-26.7
		s-18.2,29.9-18.2,29.9l0.8,20.8c0,0-1.1,6.3-7.2,6.3c-6.1-0.1-10,1.4-17.9-27.7c-7.9-29-45.2-94.5-109.6-88.2
		c-64.3,6.3-86.2,53.5-86.2,53.5S73.6,109,54.3,104C34.8,99,20,123.5,20,123.5S72.4,3.6,192.7,3.6c103.8-0.3,151.2,63.2,170.5,98.2
		C396.6,162.7,381.9,226.5,381.9,226.5z"/>
</g>
</svg>
