<svg width="9" height="8" viewBox="0 0 9 8" fill="none" xmlns="http://www.w3.org/2000/svg">
<path d="M3.37728 7.84516C3.25566 7.84516 3.13405 7.802 3.04284 7.71763L0.138334 5.04139C-0.0461114 4.87069 -0.0461114 4.59404 0.138334 4.42334C0.322779 4.25264 0.622757 4.25264 0.809229 4.42334L3.37728 6.78958L7.23036 0.238279C7.35603 0.0244153 7.63371 -0.0638773 7.85869 0.0499219C7.8972 0.0695424 7.93369 0.0950495 7.96814 0.12448C8.15056 0.293217 8.108 0.538474 7.97625 0.732717C7.9722 0.738603 7.96612 0.746451 7.96206 0.754299L3.71171 7.71959C3.6205 7.802 3.49889 7.84516 3.37728 7.84516Z" fill="#909090"/>
</svg>
