<svg width="10" height="8" viewBox="0 0 10 8" fill="none" xmlns="http://www.w3.org/2000/svg">
<path d="M3.37728 7.84516C3.25566 7.84516 3.13405 7.802 3.04284 7.71763L0.138334 5.04139C-0.0461114 4.87069 -0.0461114 4.59404 0.138334 4.42334C0.322779 4.25264 0.622757 4.25264 0.809229 4.42334L3.37728 6.78958L7.23036 0.238279C7.35603 0.0244153 7.63371 -0.0638773 7.85869 0.0499219C7.8972 0.0695424 7.93369 0.0950495 7.96814 0.12448C8.15056 0.293217 8.108 0.538474 7.97625 0.732717C7.9722 0.738603 7.96612 0.746451 7.96206 0.754299L3.71171 7.71959C3.6205 7.802 3.49889 7.84516 3.37728 7.84516Z" fill="#029692"/>
<path d="M5.28464 7.99995C5.16302 7.99995 5.04141 7.95678 4.9502 7.87241L3.96109 7.05227C3.77664 6.88158 3.77664 6.60493 3.96109 6.43423C4.14553 6.26353 4.44551 6.26353 4.63198 6.43423L5.28464 6.94632L9.13975 0.393064C9.26542 0.1792 9.5431 0.0909079 9.76808 0.204707C9.80659 0.224328 9.84307 0.249835 9.87753 0.279265C10.06 0.448002 10.0174 0.693259 9.88564 0.887502C9.88158 0.893388 9.8755 0.901236 9.87145 0.909084L5.6211 7.87437C5.52786 7.95678 5.40625 7.99995 5.28464 7.99995Z" fill="#029692"/>
</svg>
