<?xml version="1.0" encoding="utf-8"?>
<!-- Generator: Adobe Illustrator 24.0.1, SVG Export Plug-In . SVG Version: 6.00 Build 0)  -->
<svg version="1.1" id="Layer_1" xmlns="http://www.w3.org/2000/svg" xmlns:xlink="http://www.w3.org/1999/xlink" x="0px" y="0px"
	 viewBox="0 0 270.1 67.3" style="enable-background:new 0 0 270.1 67.3;" xml:space="preserve">
<style type="text/css">
	.st0{fill:#FFFFFF;}
	.st1{fill:#154988;}
	.st2{fill:#EE2F3B;}
	.st3{fill:none;}
</style>
<title>Donaro_Logo1</title>
<path class="st0" d="M9.4,39.4c0.9,2.1,2.8,3.8,5.1,3.7c1.9-0.2,3.3-1.8,3.1-3.7c0,0,0,0,0,0l-0.3-4.9c-0.1-0.5,0.2-1,0.6-1.3
	c1.2-0.7,2.4,0.6,2.7,1.4c9.2,28,32.6,19.8,36.6,9.3L60,45l0,0l-2.8-1.2c3.1-7.8,1.6-13.5,0.6-15.9c-0.9-2.1-2.8-3.9-5.1-3.6
	c-1.9,0.2-3.3,1.8-3.1,3.7c0,0,0,0,0,0l0.3,4.9c0.1,0.5-0.2,1-0.6,1.3c-1.2,0.7-2.4-0.6-2.7-1.4C37.4,4.8,14,13,10,23.5l-2.4-1l0,0
	l2.4,1C6.9,31.3,8.4,37,9.4,39.4z"/>
<path class="st1" d="M46.6,32.8c0.3,0.8,1.4,2.1,2.7,1.4c0.4-0.3,0.7-0.8,0.6-1.3L49.6,28c-0.2-1.9,1.2-3.6,3.1-3.8
	c2.3-0.2,4.2,1.6,5.1,3.6c1,2.3,2.5,8.1-0.6,15.8L60,45l4.5,1.9C71.5,31,64.4,12.5,50.3,4.5C41-0.8,29.8-1.5,20.1,2.8
	c-7.8,3.5-14,9.8-17.3,17.6l4.8,2.1l2.4,1C14,13,37.4,4.8,46.6,32.8z"/>
<path class="st2" d="M57.3,43.8c-4,10.5-27.4,18.7-36.6-9.3c-0.3-0.8-1.5-2.1-2.7-1.4c-0.5,0.3-0.7,0.8-0.6,1.3l0.3,4.9
	c0.2,1.9-1.2,3.6-3.1,3.8c0,0,0,0,0,0c-2.3,0.2-4.2-1.6-5.1-3.7c-1-2.3-2.5-8.1,0.6-15.9l-2.4-1l-4.9-2.1
	c-7,15.9,0.1,34.4,14.3,42.4c16,9.2,36.5,3.7,45.7-12.3c0.7-1.2,1.3-2.4,1.8-3.7L60,44.9L57.3,43.8z"/>
<rect x="72.4" y="12.9" class="st3" width="197.7" height="41.4"/>
<g>
	<path class="st0" d="M75.9,13.6h15.2c11.8,0,20.9,8.6,20.9,19.9c0,11-9.1,19.6-20.9,19.6H75.9V13.6z M84.1,20.9v24.9h7
		c6.9,0,12.5-5.6,12.5-12.5S98,20.8,91.1,20.8l0,0h-7V20.9z"/>
	<path class="st0" d="M131.4,23.1c8.5-0.2,15.5,6.5,15.7,15c0,0.1,0,0.2,0,0.3c0,8.6-6.9,15.2-15.7,15.2s-15.7-6.7-15.7-15.2
		c0-8.5,6.9-15.3,15.4-15.3C131.2,23.1,131.3,23.1,131.4,23.1z M139.5,38.4c0.2-4.5-3.2-8.3-7.7-8.5c-4.5-0.2-8.3,3.2-8.5,7.7
		c0,0.3,0,0.5,0,0.8c-0.2,4.5,3.2,8.3,7.7,8.5c4.5,0.2,8.3-3.2,8.5-7.7C139.6,39,139.6,38.7,139.5,38.4z"/>
	<path class="st0" d="M151.8,23.7h7.7V26c2.3-1.9,5.2-2.9,8.2-2.9c6.8,0,11.6,4.8,11.6,11.7v18.3h-7.7V35.9c0-3.7-2.4-6.1-6.1-6.1
		c-2.4-0.1-4.6,1-6,2.9v20.4h-7.7L151.8,23.7z"/>
	<path class="st0" d="M183.9,44.6c0-5.6,4.5-8.9,12.1-8.9c2.4,0,4.8,0.4,7.2,1.1v-2.1c0-3.4-2.1-5.1-6.2-5.1c-2.5,0-5.3,0.8-9,2.4
		l-2.8-5.7c4.1-2,8.5-3.1,13.1-3.1c7.9,0,12.5,4,12.5,10.9v19.1h-7.6v-2c-2.5,1.7-5.5,2.6-8.5,2.5C188.3,53.6,183.9,49.9,183.9,44.6
		z M196.6,48.1c2.3,0.1,4.6-0.6,6.5-1.9v-4.4c-2-0.7-4.1-1.1-6.2-1.1c-3.6,0-5.6,1.4-5.6,3.7S193.4,48.1,196.6,48.1z"/>
	<path class="st0" d="M216.6,23.7h7.7v3.2c1.8-2.5,4.8-4,7.9-3.9c1.1-0.1,2.2,0.2,3.2,0.7v6.8c-1.2-0.5-2.6-0.8-4-0.8
		c-3,0-5.8,1.7-7.1,4.4v19h-7.7V23.7z"/>
	<path class="st0" d="M252.5,23.1c8.5-0.2,15.5,6.5,15.7,15c0,0.1,0,0.2,0,0.3c0,8.6-6.9,15.2-15.7,15.2s-15.7-6.7-15.7-15.2
		c0-8.5,6.9-15.3,15.4-15.3C252.3,23.1,252.4,23.1,252.5,23.1z M260.6,38.4c0.2-4.5-3.2-8.3-7.7-8.5s-8.3,3.2-8.5,7.7
		c0,0.3,0,0.5,0,0.8c-0.2,4.5,3.2,8.3,7.7,8.5c4.5,0.2,8.3-3.2,8.5-7.7C260.7,39,260.7,38.7,260.6,38.4z"/>
</g>
</svg>
