<svg id="Layer_1" data-name="Layer 1" xmlns="http://www.w3.org/2000/svg" viewBox="0 0 1809.05 393.35"><defs><style>.cls-1{fill:#fff;}.cls-2{fill:#064789;}.cls-3{fill:#f32b38;}.cls-4{fill:#191929;}</style></defs><circle class="cls-1" cx="198.25" cy="196.27" r="166.84"/><path class="cls-2" d="M275.22,196c1.59,4.83,8.49,12.27,15.58,8.2,3.4-1.95,3.81-5.54,3.73-7.72L292.91,168A20.13,20.13,0,0,1,311.19,146c13.22-1.16,24.34,9.23,29.75,21.35,6.07,13.6,14.56,47.37-3.45,92.74l42.43,18.18c41.21-92.82-.36-200.86-83.14-248C235.64-4.5,168.69-1,120.13,20.62,54.5,49.89,27.48,102.88,18.65,123.49l42.43,18.18C84.63,80,221.27,32.39,275.22,196Z" transform="translate(-2.56 -4.22)"/><path class="cls-3" d="M123.37,205.78c-1.6-4.84-8.5-12.27-15.59-8.21-3.4,2-3.81,5.54-3.73,7.72l1.63,28.56A20.13,20.13,0,0,1,87.4,255.77c-13.23,1.16-24.35-9.23-29.76-21.35-6.07-13.59-14.55-47.36,3.45-92.74L18.66,123.5c-41.21,92.83.36,200.86,83.14,248,61.14,34.81,128.09,31.35,176.65,9.7,65.64-29.27,92.65-82.27,101.48-102.88L337.5,260.13C314,321.78,177.31,369.41,123.37,205.78Z" transform="translate(-2.56 -4.22)"/><path class="cls-4" d="M667.09,196.15q0,39.38-10.8,68.41t-30.72,48.25Q605.64,332,577.32,341.38T514,350.74q-15.38,0-34.57-1.2a158.18,158.18,0,0,1-36.49-6.48q-20.16-6.24-20.16-22.09V74.21c0-5.12,1.27-9,3.84-11.76s6.55-4.88,12-6.49a146.53,146.53,0,0,1,33.61-6.24q18.72-1.44,37.44-1.44,35,0,64.1,9.36t49.69,27.85Q644,104,655.57,131.58T667.09,196.15Zm-39.84,0q0-30.72-9.37-52.57t-25.44-35.77A101.72,101.72,0,0,0,555,87.41a157.17,157.17,0,0,0-45.85-6.48q-15.36,0-26.64,1a187.73,187.73,0,0,0-20.88,2.88V313.29a144.21,144.21,0,0,0,24.72,3.84q13.2,1,27.13,1,56.64,0,85.21-30.72T627.25,196.15Z" transform="translate(-2.56 -4.22)"/><path class="cls-4" d="M921.54,234.56q0,26.9-7.68,48.49A106.48,106.48,0,0,1,892,320a93.82,93.82,0,0,1-34.32,23.53q-20.18,8.16-45.13,8.16t-45.13-8.16A96.13,96.13,0,0,1,732.86,320a104.26,104.26,0,0,1-22.08-37q-7.69-21.62-7.68-48.49T711,186.07a107.43,107.43,0,0,1,22.32-37,96.23,96.23,0,0,1,34.57-23.52q20.16-8.16,44.65-8.16t44.65,8.16a93.91,93.91,0,0,1,34.32,23.52,109.47,109.47,0,0,1,22.09,37Q921.54,207.67,921.54,234.56Zm-109-85.46q-32.65,0-51.37,22.57t-18.73,62.89q0,40.82,18.49,63.13T812.56,320q33.12,0,51.37-22.56t18.24-62.89q0-40.34-18.48-62.89T812.56,149.1Z" transform="translate(-2.56 -4.22)"/><path class="cls-4" d="M1105.17,161.58Q1090,149.12,1064.6,149.1q-19.2,0-34.09,4.8a126.93,126.93,0,0,0-25.44,11V344.5a61.17,61.17,0,0,1-7.2,2.16,44,44,0,0,1-10.56,1.2q-20.65,0-20.65-17.28V166.87q0-10.1,4.08-16.57t14.17-12.72q12.48-7.68,33.12-13.92t46.57-6.24q43.68,0,68.89,19.68T1158.7,199V344.5a58.25,58.25,0,0,1-7.44,2.16,45,45,0,0,1-10.32,1.2q-20.65,0-20.65-17.28V201Q1120.29,174.07,1105.17,161.58Z" transform="translate(-2.56 -4.22)"/><path class="cls-4" d="M1295,117.42q41.76,0,66.25,18.72t24.49,59.05V309q0,10.57-4.08,16.08t-12.25,10.33q-11.52,6.72-30.48,11.76t-43.45,5q-45.13,0-69.85-17.76t-24.73-51.37q0-31.69,20.65-47.77t58.09-19.93l68.17-6.72V195.19q0-24-14.4-35.05t-38.89-11a122.25,122.25,0,0,0-37.93,5.76,209.1,209.1,0,0,0-31.68,13,45,45,0,0,1-7-7.69,15.94,15.94,0,0,1-3.13-9.6,17.45,17.45,0,0,1,3.36-11q3.36-4.32,10.57-8.16A118.27,118.27,0,0,1,1258.55,121,174.13,174.13,0,0,1,1295,117.42Zm.48,203.07q20.16,0,33.37-4.08t19-7.92V238.88l-59.53,6.24q-25,2.41-37,11.28t-12,26.17q0,18.24,13.92,28.08T1295.52,320.49Z" transform="translate(-2.56 -4.22)"/><path class="cls-4" d="M1479.87,344.5a61.17,61.17,0,0,1-7.2,2.16,44,44,0,0,1-10.56,1.2q-20.65,0-20.65-17.28V167.83q0-11,4.08-17.53t13.69-12.72q12.46-8.16,33.84-14.16t48.25-6q38.4,0,38.41,19.2a26.46,26.46,0,0,1-1.44,8.88,22.39,22.39,0,0,1-3.84,7c-3.2-.63-7.37-1.27-12.48-1.92a124,124,0,0,0-15.37-1q-22.08,0-38.89,4.56T1479.87,165Z" transform="translate(-2.56 -4.22)"/><path class="cls-4" d="M1811.61,234.56q0,26.9-7.68,48.49a106.48,106.48,0,0,1-21.85,37,93.82,93.82,0,0,1-34.32,23.53q-20.17,8.16-45.13,8.16t-45.13-8.16A96.21,96.21,0,0,1,1622.93,320a104.4,104.4,0,0,1-22.08-37q-7.68-21.62-7.68-48.49t7.92-48.49a107.43,107.43,0,0,1,22.32-37A96.32,96.32,0,0,1,1658,125.58q20.16-8.16,44.65-8.16t44.65,8.16a93.91,93.91,0,0,1,34.32,23.52,109.47,109.47,0,0,1,22.09,37Q1811.61,207.67,1811.61,234.56Zm-109-85.46q-32.66,0-51.37,22.57t-18.72,62.89q0,40.82,18.48,63.13T1702.63,320q33.12,0,51.37-22.56t18.24-62.89q0-40.34-18.48-62.89T1702.63,149.1Z" transform="translate(-2.56 -4.22)"/></svg>