<svg xmlns="http://www.w3.org/2000/svg" viewBox="0 0 1837.94 380.43"><defs><style>.cls-1{fill:#fff;}.cls-2{fill:#064789;}.cls-3{fill:#f32b38;}.cls-4{fill:#191929;}</style></defs><g id="Layer_2" data-name="Layer 2"><g id="Layer_1-2" data-name="Layer 1"><path class="cls-1" d="M324.09,247.56c17.39-43.83,9.19-76.46,3.33-89.59-5.22-11.71-16-21.74-28.73-20.62A19.44,19.44,0,0,0,281,158.52l1.57,27.59c.07,2.11-.32,5.58-3.6,7.46-6.85,3.93-13.52-3.25-15.06-7.93C211.85,27.56,79.88,73.58,57.13,133.14"/><path class="cls-1" d="M57.15,133.14C39.75,177,48,209.6,53.81,222.73c5.22,11.72,16,21.75,28.74,20.63a19.44,19.44,0,0,0,17.65-21.17l-1.57-27.6c-.07-2.1.32-5.57,3.6-7.46,6.85-3.92,13.52,3.26,15.06,7.93,52.1,158.08,184.07,112.07,206.81,52.51"/><path class="cls-2" d="M365.09,265.13l-.1.22c-6.78,10.52-21,16.95-32.68,12.82-10.83-3.82-12.82-13-9.55-24q1-3.27,1.88-6.37l15.22,6.52Z"/><path class="cls-2" d="M366.76,262.17a24.74,24.74,0,0,1-1.77,3.18l.1-.22-25.23-10.81-15.22-6.52c9.76-33.15,14.41-53.75,3.12-87.63-4-12-16.45-24-29.22-22.91a19.44,19.44,0,0,0-17.66,21.18L282.46,186c.07,2.1-.32,5.58-3.61,7.46-6.85,3.93-13.51-3.26-15.05-7.93C211.7,27.48,79.73,73.49,57,133.06l-.54-.23L41.23,126.3,16,115.49l.1-.22c8.62-20,32.23-68.82,97.92-99.16C162.54-6.3,233.24-8,290.76,28.17,387.76,89.17,394.76,202.17,366.76,262.17Z"/><path class="cls-3" d="M365,265.35a192.62,192.62,0,0,1-97.92,99.17c-48.74,21.93-119.22,24.1-176.74-12.07-97-61-104-174-76-234a24.74,24.74,0,0,1,1.77-3.18c6.78-10.52,21-17,32.68-12.81,10.83,3.81,12.82,13,9.55,24q-1,3.27-1.89,6.38C46.69,166,42,186.57,53.33,220.45c4,12,16.45,24,29.22,22.91a19.44,19.44,0,0,0,17.66-21.17l-1.58-27.6c-.07-2.1.32-5.57,3.61-7.46,6.84-3.92,13.51,3.26,15.05,7.93,52.1,158.08,184.07,112.07,206.82,52.51l.53.23q-.9,3.1-1.88,6.37c-3.27,11-1.28,20.18,9.55,24C344,282.3,358.21,275.87,365,265.35Z"/><path class="cls-4" d="M693.42,185.6q0,39.38-10.8,68.42t-30.73,48.24Q632,321.48,603.64,330.83t-63.37,9.36q-15.37,0-34.57-1.2a158.19,158.19,0,0,1-36.48-6.48q-20.18-6.24-20.17-22.08V63.66q0-7.68,3.84-11.76t12-6.48a146.42,146.42,0,0,1,33.6-6.25q18.74-1.44,37.45-1.44,35,0,64.09,9.37t49.69,27.84Q670.37,93.44,681.9,121T693.42,185.6Zm-39.85,0q0-30.72-9.36-52.57T618.77,97.27a101.59,101.59,0,0,0-37.45-20.41,157.27,157.27,0,0,0-45.85-6.48q-15.37,0-26.64,1a192.76,192.76,0,0,0-20.89,2.88V302.74a145.3,145.3,0,0,0,24.73,3.85q13.19,1,27.12,1,56.64,0,85.22-30.73T653.57,185.6Z"/><path class="cls-4" d="M947.86,224q0,26.9-7.68,48.49a106.51,106.51,0,0,1-21.84,37A94,94,0,0,1,884,333q-20.16,8.16-45.13,8.16T793.75,333a96.19,96.19,0,0,1-34.56-23.52,104.47,104.47,0,0,1-22.09-37q-7.68-21.6-7.68-48.49t7.92-48.49a107.61,107.61,0,0,1,22.33-37A96.32,96.32,0,0,1,794.23,115q20.17-8.16,44.65-8.16T883.53,115a94.16,94.16,0,0,1,34.33,23.52,109.61,109.61,0,0,1,22.08,37Q947.86,197.12,947.86,224Zm-109-85.46q-32.65,0-51.37,22.57T768.79,224q0,40.82,18.48,63.13t51.61,22.33q33.14,0,51.37-22.57T908.5,224q0-40.33-18.49-62.89T838.88,138.55Z"/><path class="cls-4" d="M1131.49,151q-15.12-12.48-40.56-12.49-19.22,0-34.09,4.8a126.68,126.68,0,0,0-25.44,11.05V334a59,59,0,0,1-7.21,2.16,43.52,43.52,0,0,1-10.56,1.2Q993,337.31,993,320V156.32q0-10.08,4.08-16.57T1011.23,127q12.48-7.66,33.13-13.92t46.57-6.24q43.68,0,68.89,19.68t25.2,61.93V334a56.16,56.16,0,0,1-7.44,2.16,44.4,44.4,0,0,1-10.32,1.2q-20.64,0-20.64-17.28V190.4Q1146.62,163.52,1131.49,151Z"/><path class="cls-4" d="M1321.36,106.87q41.78,0,66.26,18.72t24.48,59V298.42q0,10.57-4.08,16.09t-12.24,10.32q-11.52,6.72-30.49,11.76t-43.44,5q-45.13,0-69.86-17.76t-24.72-51.37q0-31.69,20.64-47.77T1306,204.81l68.18-6.73V184.64q0-24-14.41-35t-38.88-11a122.2,122.2,0,0,0-37.93,5.76,210.89,210.89,0,0,0-31.69,13,45.73,45.73,0,0,1-7-7.68,16,16,0,0,1-3.12-9.61,17.47,17.47,0,0,1,3.36-11q3.36-4.32,10.56-8.16a118.21,118.21,0,0,1,29.77-10.32A174.1,174.1,0,0,1,1321.36,106.87Zm.49,203.08q20.16,0,33.36-4.09t19-7.92V228.33l-59.54,6.24q-25,2.42-37,11.28t-12,26.17q0,18.25,13.93,28.08T1321.85,310Z"/><path class="cls-4" d="M1506.2,334a59,59,0,0,1-7.21,2.16,43.52,43.52,0,0,1-10.56,1.2q-20.64,0-20.64-17.28V157.28q0-11,4.08-17.53T1485.55,127q12.48-8.16,33.85-14.16t48.25-6q38.4,0,38.4,19.2a26.46,26.46,0,0,1-1.44,8.88,22.28,22.28,0,0,1-3.84,7q-4.8-.94-12.48-1.92a125.8,125.8,0,0,0-15.36-1q-22.1,0-38.89,4.56T1506.2,154.4Z"/><path class="cls-4" d="M1837.94,224q0,26.9-7.69,48.49a106.36,106.36,0,0,1-21.84,37A94,94,0,0,1,1774.08,333q-20.16,8.16-45.13,8.16T1683.83,333a96.14,96.14,0,0,1-34.57-23.52,104.3,104.3,0,0,1-22.08-37q-7.7-21.6-7.69-48.49t7.93-48.49a107.43,107.43,0,0,1,22.32-37A96.27,96.27,0,0,1,1684.31,115q20.16-8.16,44.64-8.16T1773.6,115a94.07,94.07,0,0,1,34.33,23.52,109.45,109.45,0,0,1,22.08,37Q1837.93,197.12,1837.94,224Zm-109-85.46q-32.64,0-51.37,22.57T1658.86,224q0,40.82,18.48,63.13T1729,309.47q33.13,0,51.37-22.57T1798.57,224q0-40.33-18.49-62.89T1729,138.55Z"/></g></g></svg>