<svg id="Layer_1" data-name="Layer 1" xmlns="http://www.w3.org/2000/svg" viewBox="0 0 270.07 67.29"><defs><style>.cls-1{fill:#fff;}.cls-2{fill:#154988;}.cls-3{fill:#ee2f3b;}.cls-4{fill:none;}.cls-5{isolation:isolate;}.cls-6{fill:#191929;}</style></defs><title>Donaro_Logo1</title><path class="cls-1" d="M46.68,40.74c.92,2.08,2.83,3.84,5.08,3.65a3.44,3.44,0,0,0,3.13-3.76l-.29-4.88a1.4,1.4,0,0,1,.64-1.32c1.21-.69,2.4.58,2.66,1.41,9.22,28,32.59,19.84,36.61,9.29l2.79,1.2h0l-2.79-1.2c3.09-7.76,1.63-13.53.59-15.85-.92-2.08-2.83-3.85-5.08-3.65a3.44,3.44,0,0,0-3.13,3.75l.29,4.89a1.41,1.41,0,0,1-.64,1.32c-1.21.69-2.4-.58-2.66-1.41-9.22-28-32.59-19.84-36.61-9.3l-2.4-1h0l2.4,1C44.2,32.64,45.64,38.41,46.68,40.74Z" transform="translate(-37.28 -1.36)"/><path class="cls-2" d="M83.88,34.18c.26.83,1.45,2.1,2.66,1.41a1.41,1.41,0,0,0,.64-1.32l-.29-4.89A3.45,3.45,0,0,1,90,25.63c2.25-.2,4.16,1.57,5.08,3.65,1,2.32,2.48,8.09-.59,15.85l2.79,1.2,4.46,1.9c7.06-15.87-.05-34.35-14.21-42.41a33.67,33.67,0,0,0-30.2-1.66A34,34,0,0,0,40,21.76l4.85,2.08,2.4,1C51.29,14.34,74.66,6.19,83.88,34.18Z" transform="translate(-37.28 -1.36)"/><path class="cls-3" d="M94.53,45.13c-4,10.55-27.39,18.7-36.61-9.29-.27-.83-1.45-2.1-2.66-1.41a1.36,1.36,0,0,0-.64,1.32l.28,4.88a3.44,3.44,0,0,1-3.12,3.76c-2.26.19-4.16-1.57-5.08-3.65-1-2.33-2.48-8.1.58-15.86l-2.39-1L40,21.78C33,37.65,40.09,56.14,54.25,64.2a33.46,33.46,0,0,0,47.53-16l-4.46-1.92Z" transform="translate(-37.28 -1.36)"/><rect class="cls-4" x="72.38" y="12.91" width="197.68" height="41.39"/><g class="cls-5"><path class="cls-6" d="M113.21,15h15.18c11.8,0,20.88,8.64,20.88,19.86,0,11-9.08,19.64-20.88,19.64H113.21V15Zm8.18,7.28V47.17h7a12.48,12.48,0,0,0,0-25h-7Z" transform="translate(-37.28 -1.36)"/><path class="cls-6" d="M168.69,24.49a15.34,15.34,0,0,1,15.7,15.29c0,8.57-6.88,15.24-15.7,15.24S153,48.35,153,39.78A15.33,15.33,0,0,1,168.69,24.49Zm8.13,15.29a8.14,8.14,0,1,0-16.26,0,8.14,8.14,0,1,0,16.26,0Z" transform="translate(-37.28 -1.36)"/><path class="cls-6" d="M189.11,25.05h7.73v2.31a12.55,12.55,0,0,1,8.23-2.87c6.83,0,11.63,4.8,11.63,11.67V54.45H209V37.29c0-3.72-2.36-6.15-6.1-6.15a7.05,7.05,0,0,0-6,2.92V54.43h-7.73Z" transform="translate(-37.28 -1.36)"/><path class="cls-6" d="M221.17,45.93c0-5.59,4.52-8.92,12.09-8.92a23.5,23.5,0,0,1,7.16,1.13V36.06c0-3.39-2.09-5.13-6.21-5.13-2.49,0-5.26.79-9,2.43l-2.82-5.7a30.5,30.5,0,0,1,13.09-3.15c7.95,0,12.52,3.95,12.52,10.9V54.49H240.4v-2A14,14,0,0,1,231.88,55C225.57,55,221.17,51.3,221.17,45.93Zm12.76,3.5a11.06,11.06,0,0,0,6.49-1.87V43.15a17,17,0,0,0-6.21-1.08c-3.56,0-5.65,1.41-5.65,3.67S230.65,49.43,233.93,49.43Z" transform="translate(-37.28 -1.36)"/><path class="cls-6" d="M253.91,25.05h7.72v3.21a9.36,9.36,0,0,1,7.85-3.89,6.57,6.57,0,0,1,3.21.67v6.77a9.84,9.84,0,0,0-3.95-.8,7.76,7.76,0,0,0-7.11,4.41v19h-7.72Z" transform="translate(-37.28 -1.36)"/><path class="cls-6" d="M289.8,24.49a15.33,15.33,0,0,1,15.69,15.29c0,8.57-6.88,15.24-15.69,15.24s-15.7-6.67-15.7-15.24A15.33,15.33,0,0,1,289.8,24.49Zm8.13,15.29a8.14,8.14,0,1,0-16.26,0,8.14,8.14,0,1,0,16.26,0Z" transform="translate(-37.28 -1.36)"/></g></svg>