<svg width="120" height="120" viewBox="0 0 120 120" fill="none" xmlns="http://www.w3.org/2000/svg">
<path d="M120 71.25C120 68.2451 118.805 65.445 116.745 63.38C119.08 60.825 120.27 57.3999 119.945 53.835C119.36 47.48 113.635 42.5 106.905 42.5H76.02C77.55 37.8549 79.9999 29.34 79.9999 22.5C79.9999 11.655 70.785 2.50012 64.9999 2.50012C59.8099 2.50012 56.0948 5.42512 55.9399 5.54512C55.3448 6.0202 54.9998 6.7402 54.9998 7.50004V24.455L40.5949 55.65L39.9998 55.955V54.9999C39.9998 53.6199 38.8798 52.4998 37.4998 52.4998H12.4999C5.60508 52.5 0 58.1051 0 65V105C0 111.895 5.60508 117.5 12.4999 117.5H27.4999C32.9048 117.5 37.5248 114.05 39.2648 109.235C43.425 111.375 49.0249 112.5 52.5 112.5H98.3951C103.84 112.5 108.605 108.83 109.725 103.77C110.3 101.16 109.965 98.535 108.825 96.255C112.515 94.4 115 90.585 115 86.25C115 84.48 114.595 82.785 113.83 81.255C117.52 79.395 120 75.585 120 71.25ZM109.455 77.42C108.49 77.535 107.675 78.1899 107.365 79.115C107.06 80.04 107.315 81.0549 108.025 81.725C109.295 82.92 110 84.53 110 86.25C110 89.405 107.615 92.055 104.46 92.42C103.495 92.535 102.68 93.1899 102.37 94.115C102.065 95.04 102.32 96.0549 103.03 96.725C104.675 98.2749 105.335 100.45 104.84 102.69C104.225 105.48 101.515 107.5 98.3953 107.5H52.5C48.4399 107.5 41.6299 105.595 39.27 103.23C38.5549 102.52 37.4749 102.31 36.5449 102.69C35.61 103.075 34.9999 103.99 34.9999 105C34.9999 109.135 31.635 112.5 27.4999 112.5H12.4999C8.36484 112.5 4.99992 109.135 4.99992 105V65C4.99992 60.8649 8.36484 57.5 12.4999 57.5H34.9999V60C34.9999 60.8651 35.4499 61.67 36.1898 62.13C36.9199 62.57 37.8398 62.615 38.6198 62.235L43.6198 59.735C44.1248 59.4849 44.5298 59.0649 44.7698 58.55L59.7698 26.0499C59.9198 25.7199 59.9998 25.3599 59.9998 24.9999V8.85497C61.0399 8.28004 62.8451 7.50004 64.9999 7.50004C67.74 7.50004 75 14.31 75 22.5C75 31.3001 70.2101 43.985 70.1651 44.1101C69.8752 44.8751 69.975 45.7402 70.44 46.4201C70.9099 47.0951 71.6801 47.5001 72.4999 47.5001H106.905C111.075 47.5001 114.615 50.4851 114.965 54.2951C115.23 57.1451 113.86 59.8552 111.405 61.3702C110.64 61.8401 110.185 62.6902 110.22 63.5951C110.255 64.5 110.775 65.31 111.575 65.7251C113.69 66.8002 115 68.9201 115 71.25C115 74.405 112.615 77.055 109.455 77.42Z" fill="white"/>
<path d="M37.5001 57.4999C36.1201 57.4999 35 58.62 35 60V105C35 106.38 36.1201 107.5 37.5001 107.5C38.8801 107.5 40.0002 106.38 40.0002 105V60C40.0002 58.62 38.8801 57.4999 37.5001 57.4999Z" fill="white"/>
</svg>
