<svg width="10" height="10" viewBox="0 0 10 10" fill="none" xmlns="http://www.w3.org/2000/svg">
<path d="M7.12962 1.07341C8.27546 1.96627 9.02116 3.42658 9.02116 5.07936C9.02116 7.79364 7.00595 9.99404 4.51967 9.99999C2.03704 10.0059 0.00364088 7.79761 3.31957e-06 5.0873C-0.00181546 3.43452 0.743885 1.97024 1.8879 1.0754C2.1007 0.910713 2.39716 0.980158 2.52447 1.22817L2.81184 1.78571C2.91915 1.99405 2.86822 2.25793 2.6918 2.40079C1.937 3.0119 1.45503 3.98015 1.45503 5.07737C1.45321 6.90872 2.81002 8.41269 4.51058 8.41269C6.17658 8.41269 7.57704 6.94047 7.56613 5.05753C7.56068 4.02976 7.11689 3.03769 6.32754 2.39881C6.15112 2.25595 6.10201 1.99206 6.20932 1.78571L6.49669 1.22817C6.624 0.982142 6.91865 0.908729 7.12962 1.07341ZM5.23809 5.23809V0.47619C5.23809 0.212301 5.04348 0 4.80158 0H4.21957C3.97768 0 3.78307 0.212301 3.78307 0.47619V5.23809C3.78307 5.50198 3.97768 5.71428 4.21957 5.71428H4.80158C5.04348 5.71428 5.23809 5.50198 5.23809 5.23809Z" fill="#F32B38"/>
</svg>
