<svg width="8" height="8" viewBox="0 0 8 8" fill="none" xmlns="http://www.w3.org/2000/svg">
<path d="M3.9965 0.666504C2.1565 0.666504 0.666504 2.15984 0.666504 3.99984C0.666504 5.83984 2.1565 7.33317 3.9965 7.33317C5.83984 7.33317 7.33317 5.83984 7.33317 3.99984C7.33317 2.15984 5.83984 0.666504 3.9965 0.666504ZM3.99984 6.6665C2.5265 6.6665 1.33317 5.47317 1.33317 3.99984C1.33317 2.5265 2.5265 1.33317 3.99984 1.33317C5.47317 1.33317 6.6665 2.5265 6.6665 3.99984C6.6665 5.47317 5.47317 6.6665 3.99984 6.6665Z" fill="#939393"/>
<path d="M4.1665 2.3335H3.6665V4.3335L5.4165 5.3835L5.6665 4.9735L4.1665 4.0835V2.3335Z" fill="#939393"/>
</svg>
