<?xml version="1.0" encoding="utf-8"?>
<!-- Generator: Adobe Illustrator 24.0.1, SVG Export Plug-In . SVG Version: 6.00 Build 0)  -->
<svg version="1.1" id="Capa_1" xmlns="http://www.w3.org/2000/svg" xmlns:xlink="http://www.w3.org/1999/xlink" x="0px" y="0px"
	 viewBox="0 0 512 512" style="enable-background:new 0 0 512 512;" xml:space="preserve">
<style type="text/css">
	.st0{fill:#FFFFFF;}
</style>
<g>
	<g>
		<g>
			<path class="st0" d="M150.1,139.2c5.4-1.1,8.9-6.5,7.7-11.9c-1.1-5.4-6.4-8.9-11.9-7.7l-28,5.9c-5.4,1.1-8.9,6.5-7.7,11.9
				c1,4.7,5.2,7.9,9.8,7.9c0.7,0,1.4-0.1,2.1-0.2L150.1,139.2z"/>
			<path class="st0" d="M156.5,169l-28,5.9c-5.4,1.1-8.9,6.5-7.7,11.9c1,4.7,5.2,7.9,9.8,7.9c0.7,0,1.4-0.1,2.1-0.2l28-5.9
				c5.4-1.1,8.9-6.5,7.7-11.9C167.3,171.3,162,167.8,156.5,169L156.5,169z"/>
			<path class="st0" d="M498.9,316.8l-38.1-89c0-0.1,0-0.1-0.1-0.2c-0.7-1.9-2-3.5-3.8-4.5c-0.4-0.2-0.7-0.4-0.8-0.4v-51.8
				c0-22.4-5.6-44.6-16.1-64.3l-21-39.3c3.4-1.6,5.8-5.1,5.8-9.1V10c0-5.5-4.5-10-10-10h-77.2c-5.5,0-10,4.5-10,10v48.1
				c0,4,2.4,7.5,5.8,9.1l-21,39.3c-1.6,2.9-3,5.9-4.3,8.9c-10.5-4.5-20.6-6.6-31.9-6.6c-27.5,0-52.1,12.5-68.4,32.2L195,80.9
				c-8.1-37.8-45.5-62-83.4-54l-0.1,0c-18.4,3.9-34.2,14.7-44.4,30.5c-10.2,15.7-13.7,34.5-9.7,52.8l23.8,111.3H60.4h0
				c-4.1,0-7.7,2.5-9.3,6.2l0,0l-38.1,89c-1.6,3.8-0.8,8.3,2.4,11.2c1.9,1.8,4.5,2.7,7.1,2.7h27.8v154.2c0,5.2,4,9.5,9.1,10
				L255.1,512c0,0,0.8,0,0.9,0c0.1,0,0.8,0,0.9,0l195.6-17.1c5.2-0.5,9.1-4.8,9.1-10V330.7h27.8c2.6,0,5.2-0.9,7.1-2.7
				C499.7,325,500.5,320.6,498.9,316.8L498.9,316.8z M347.7,20h57.2v28.1h-57.2V20z M355.7,68.1h41.2l25.6,47.8
				c9,16.8,13.8,35.8,13.8,54.9v50.7H316.4v-50.7c0-19.1,4.8-38.1,13.8-54.9L355.7,68.1z M276.3,128.8c8.9,0,16.7,1.7,25.1,5.5
				c-3.3,11.9-5,24.2-5,36.6v50.7H212c-3-7.7-4.5-15.9-4.5-24.3C207.6,159.5,238.4,128.8,276.3,128.8z M76.9,106.1
				c-2.8-13.1-0.3-26.5,7-37.8c7.3-11.3,18.6-19,31.8-21.8l0.1,0c27.1-5.8,53.9,11.6,59.7,38.6l17.5,81.7
				c-3.5,9.5-5.4,19.7-5.4,30.4c0,8.4,1.1,16.5,3.4,24.3h-89.4L76.9,106.1z M67,241.6h173.8l-29.6,69.1H37.4L67,241.6z M70.4,330.7
				h147.5c4,0,7.6-2.4,9.2-6.1l18.9-44.3v210.7L70.4,475.7V330.7z M433.3,310.7c-5.5,0-10,4.5-10,10s4.5,10,10,10h8.3v145L266,491.1
				V280.4l18.9,44.3c1.6,3.7,5.2,6.1,9.2,6.1h48.8c5.5,0,10-4.5,10-10s-4.5-10-10-10h-42.2l-29.6-69.1H445l29.6,69.1L433.3,310.7
				L433.3,310.7z"/>
			<path class="st0" d="M393.8,312.4c-3.5-2.4-8.3-2.2-11.6,0.4c-3.4,2.6-4.7,7.1-3.4,11.1c1.3,3.9,5,6.7,9.1,6.8
				c4.1,0.1,8-2.4,9.6-6.2C399.3,320.2,397.8,314.9,393.8,312.4L393.8,312.4z"/>
		</g>
	</g>
</g>
</svg>
