<svg width="20" height="20" viewBox="0 0 20 20" fill="none" xmlns="http://www.w3.org/2000/svg">
<path d="M11.8397 10.017L19.5819 2.27483C19.7109 2.15456 19.8145 2.00953 19.8863 1.84838C19.9581 1.68724 19.9967 1.51328 19.9998 1.33689C20.0029 1.16049 19.9705 0.98528 19.9044 0.821701C19.8383 0.658121 19.74 0.509525 19.6152 0.384777C19.4905 0.260029 19.3419 0.161686 19.1783 0.0956132C19.0147 0.0295406 18.8395 -0.00290779 18.6631 0.000204448C18.4867 0.00331669 18.3128 0.0419257 18.1516 0.113728C17.9905 0.18553 17.8454 0.289054 17.7252 0.418125L9.98304 8.16025L2.24091 0.418125C1.99187 0.186071 1.66249 0.0597387 1.32215 0.0657436C0.981808 0.0717485 0.657084 0.209622 0.41639 0.450316C0.175696 0.691011 0.0378223 1.01573 0.0318174 1.35607C0.0258125 1.69641 0.152145 2.0258 0.384198 2.27483L8.12633 10.017L0.384198 17.7591C0.138184 18.0054 0 18.3393 0 18.6874C0 19.0356 0.138184 19.3695 0.384198 19.6158C0.63052 19.8618 0.964419 20 1.31255 20C1.66069 20 1.99459 19.8618 2.24091 19.6158L9.98304 11.8737L17.7252 19.6158C17.9715 19.8618 18.3054 20 18.6535 20C19.0017 20 19.3356 19.8618 19.5819 19.6158C19.8279 19.3695 19.9661 19.0356 19.9661 18.6874C19.9661 18.3393 19.8279 18.0054 19.5819 17.7591L11.8397 10.017Z" fill="#F32B38"/>
</svg>
