<svg width="36" height="33" viewBox="0 0 36 33" fill="none" xmlns="http://www.w3.org/2000/svg">
<path d="M16.2998 19.0658L16.2983 19.0643L0.680744 3.44672C0.427539 3.06353 0.314039 2.60441 0.359993 2.14678C0.406991 1.67876 0.617748 1.24237 0.955091 0.914571C1.29244 0.586774 1.7347 0.388631 2.20387 0.355086C2.66444 0.322156 3.1219 0.449918 3.49851 0.716146L17.4621 14.5861L17.7088 14.8311L17.9554 14.5861L31.9122 0.723018C32.2811 0.49285 32.7155 0.389288 33.1492 0.42866C33.5945 0.469083 34.0133 0.657838 34.3386 0.96467C34.6638 1.2715 34.8766 1.67864 34.9429 2.12084C35.0069 2.54806 34.9306 2.98409 34.7261 3.36366L19.1193 18.9704L19.1116 18.9781L19.1043 18.9863C18.9273 19.187 18.7112 19.3493 18.4692 19.4635C18.2287 19.5769 17.9678 19.6404 17.7021 19.65C17.4421 19.6506 17.1847 19.5995 16.9445 19.4999C16.7029 19.3995 16.4837 19.252 16.2998 19.0658Z" fill="#064789" stroke="#064789" stroke-width="0.7"/>
<path d="M16.2998 32.0658L16.2983 32.0643L0.680744 16.4467C0.427539 16.0635 0.314039 15.6044 0.359993 15.1468C0.406991 14.6788 0.617748 14.2424 0.955091 13.9146C1.29244 13.5868 1.7347 13.3886 2.20387 13.3551C2.66444 13.3222 3.1219 13.4499 3.49851 13.7161L17.4621 27.5861L17.7088 27.8311L17.9554 27.5861L31.9122 13.723C32.2811 13.4928 32.7155 13.3893 33.1492 13.4287C33.5945 13.4691 34.0133 13.6578 34.3386 13.9647C34.6638 14.2715 34.8766 14.6786 34.9429 15.1208C35.0069 15.5481 34.9306 15.9841 34.7261 16.3637L19.1193 31.9704L19.1116 31.9781L19.1043 31.9863C18.9273 32.187 18.7112 32.3493 18.4692 32.4635C18.2287 32.5769 17.9678 32.6404 17.7021 32.65C17.4421 32.6506 17.1847 32.5995 16.9445 32.4999C16.7029 32.3995 16.4837 32.252 16.2998 32.0658Z" fill="#064789" stroke="#064789" stroke-width="0.7"/>
</svg>
