<svg width="36" height="33" viewBox="0 0 36 33" fill="none" xmlns="http://www.w3.org/2000/svg">
<path d="M17.7088 20C17.4005 20.0014 17.0951 19.9413 16.8104 19.8231C16.5257 19.7049 16.2674 19.5311 16.0508 19.3117L0.409259 3.67021C0.0972878 3.2138 -0.0434929 2.66189 0.0117448 2.11181C0.0669825 1.56173 0.314691 1.04883 0.711182 0.663557C1.10767 0.278288 1.62747 0.0454033 2.17891 0.00597679C2.73035 -0.0334497 3.278 0.123116 3.72526 0.448058L17.7088 14.3377L31.6923 0.448058C32.1333 0.16216 32.6575 0.0325819 33.1808 0.080093C33.7042 0.127604 34.1965 0.349454 34.5787 0.710083C34.961 1.07071 35.2111 1.54924 35.289 2.06896C35.3669 2.58869 35.2681 3.11951 35.0083 3.57636L19.3668 19.2179C19.1582 19.4543 18.9036 19.6456 18.6185 19.78C18.3334 19.9145 18.0238 19.9894 17.7088 20V20Z" fill="white"/>
<path d="M17.7088 33C17.4005 33.0014 17.0951 32.9413 16.8104 32.8231C16.5257 32.7049 16.2674 32.5311 16.0508 32.3117L0.409259 16.6702C0.0972878 16.2138 -0.0434929 15.6619 0.0117448 15.1118C0.0669825 14.5617 0.314691 14.0488 0.711182 13.6636C1.10767 13.2783 1.62747 13.0454 2.17891 13.006C2.73035 12.9666 3.278 13.1231 3.72527 13.4481L17.7088 27.3377L31.6923 13.4481C32.1333 13.1622 32.6575 13.0326 33.1808 13.0801C33.7042 13.1276 34.1965 13.3495 34.5788 13.7101C34.961 14.0707 35.2111 14.5492 35.289 15.069C35.3669 15.5887 35.2681 16.1195 35.0083 16.5764L19.3668 32.2179C19.1582 32.4543 18.9036 32.6456 18.6185 32.78C18.3334 32.9145 18.0238 32.9894 17.7088 33Z" fill="white"/>
</svg>
