<svg width="25" height="25" viewBox="0 0 25 25" fill="none" xmlns="http://www.w3.org/2000/svg">
<path d="M24.9996 22.1974C24.9945 22.03 24.9554 21.8653 24.8847 21.7134C24.814 21.5615 24.7132 21.4256 24.5884 21.3139L17.5093 15C16.823 15.9745 15.9741 16.8236 15 17.5103L21.3116 24.5919C21.7584 25.1143 22.6238 25.1393 23.1001 24.6432L24.6396 23.1031C24.7579 22.9844 24.8507 22.8429 24.9126 22.6872C24.9745 22.5316 25.004 22.3649 24.9996 22.1974Z" fill="#939393"/>
<path d="M19 9.5C19 4.26168 14.7383 0 9.5 0C4.26168 0 0 4.26168 0 9.5C0 14.7383 4.26168 19 9.5 19C14.7383 19 19 14.7383 19 9.5ZM9.5 16.7381C5.50899 16.7381 2.2619 13.491 2.2619 9.5C2.2619 5.50899 5.50899 2.2619 9.5 2.2619C13.491 2.2619 16.7381 5.50899 16.7381 9.5C16.7381 13.491 13.491 16.7381 9.5 16.7381Z" fill="#939393"/>
</svg>
