<?xml version="1.0" encoding="utf-8"?>
<!-- Generator: Adobe Illustrator 24.0.1, SVG Export Plug-In . SVG Version: 6.00 Build 0)  -->
<svg version="1.1" id="Capa_1" xmlns="http://www.w3.org/2000/svg" xmlns:xlink="http://www.w3.org/1999/xlink" x="0px" y="0px"
	 viewBox="0 0 512 512" style="enable-background:new 0 0 512 512;" xml:space="preserve">
<style type="text/css">
	.st0{fill:#FFFFFF;}
</style>
<g>
	<path class="st0" d="M1.2,350.7C2.9,354,6.3,356,10,356h50v146c0,5.5,4.5,10,10,10h372c5.5,0,10-4.5,10-10V356h50
		c3.7,0,7.1-2,8.8-5.3c1.7-3.3,1.5-7.2-0.5-10.3l-60-90c-1.9-2.8-5-4.5-8.3-4.5h-38c-5.5,0-10,4.5-10,10c0,5.5,4.5,10,10,10h32.6
		l46.7,70h-162l-46.7-70H314c5.5,0,10-4.5,10-10s-4.5-10-10-10c-11.4,0-232.9,0-244,0c-3.3,0-6.5,1.7-8.3,4.5l-60,90
		C-0.4,343.5-0.6,347.5,1.2,350.7z M80,356h116c3.3,0,6.5-1.7,8.3-4.5L246,289v203H80V356z M307.7,351.5c1.9,2.8,5,4.5,8.3,4.5h116
		v136H266V289L307.7,351.5z M75.4,266h162l-46.7,70h-162L75.4,266z"/>
	<path class="st0" d="M196,25c-8.2-12-22.3-25-45-25c-32,0-55,25.8-55,57c0,34.6,28,57.3,70.3,91.7c7.4,6,15.1,12.3,23.3,19
		c1.9,1.5,4.1,2.3,6.4,2.3s4.5-0.8,6.4-2.3c8.2-6.8,15.8-13,23.3-19C268,114.3,296,91.5,296,57c0-31.2-23-57-55-57
		C218.3,0,204.2,13,196,25z M276,57c0,25.1-25,45.4-62.9,76.1c-5.5,4.5-11.2,9.1-17.1,13.9c-5.9-4.9-11.5-9.4-17.1-13.9
		C141,102.3,116,82,116,57c0-21.1,15-37,35-37c26.1,0,35,29.1,35.4,30.3c1.2,4.3,5.2,7.2,9.6,7.2s8.4-3,9.6-7.2
		c0.1-0.3,9-30.3,35.4-30.3C261,20,276,35.9,276,57L276,57z"/>
	<path class="st0" d="M376,200c2.4,0,4.7-0.8,6.6-2.5c5.4-4.8,10.6-9.1,15.5-13.3c27.8-23.7,47.9-40.8,47.9-66.3
		c0-24-17.6-42.9-40-42.9c-14.3,0-23.8,7.3-30,15c-6.2-7.8-15.7-15-30-15c-22.4,0-40,18.8-40,42.9c0,25.5,20.1,42.6,47.9,66.3
		c5,4.2,10.1,8.6,15.5,13.3C371.3,199.2,373.6,200,376,200z M326,117.9c0-11.1,7-22.9,20-22.9c14.7,0,20.1,18.1,20.4,18.9
		c1.2,4.3,5.1,7.3,9.6,7.3c4.5,0,8.4-3,9.6-7.3c0.2-0.8,5.6-18.9,20.4-18.9c13,0,20,11.8,20,22.9c0,16.2-15.4,29.4-40.9,51.1
		c-3,2.5-6,5.1-9.1,7.8c-3.1-2.7-6.1-5.3-9.1-7.8C341.4,147.2,326,134.1,326,117.9L326,117.9z"/>
	<circle class="st0" cx="359" cy="256" r="10"/>
</g>
</svg>
