<svg id="Capa_1" enable-background="new 0 0 512 512" height="512" viewBox="0 0 512 512" width="512" xmlns="http://www.w3.org/2000/svg"><g><g><g><path d="m150.137 139.199c5.402-1.146 8.853-6.456 7.706-11.858-1.146-5.401-6.447-8.851-11.858-7.706l-28.024 5.947c-5.402 1.146-8.853 6.456-7.706 11.858.998 4.702 5.15 7.926 9.772 7.926.688 0 1.386-.071 2.086-.22z"/><path d="m156.541 168.979-28.024 5.947c-5.402 1.146-8.853 6.456-7.706 11.858.998 4.702 5.15 7.926 9.772 7.926.688 0 1.386-.071 2.086-.22l28.025-5.947c5.402-1.146 8.852-6.456 7.706-11.858-1.147-5.401-6.447-8.851-11.859-7.706z"/><path d="m498.912 316.752-38.051-88.962c-.021-.053-.046-.118-.074-.193-.702-1.891-2.032-3.486-3.788-4.478-.39-.22-.691-.389-.787-.439v-51.817c0-22.36-5.576-44.608-16.127-64.341l-21.008-39.293c3.439-1.582 5.827-5.057 5.827-9.089v-48.14c0-5.523-4.477-10-10-10h-77.221c-5.523 0-10 4.477-10 10v48.139c0 4.033 2.388 7.508 5.827 9.089l-21.007 39.293c-1.554 2.906-2.999 5.868-4.335 8.875-10.513-4.537-20.632-6.607-31.861-6.607-27.509 0-52.133 12.538-68.421 32.18l-12.896-60.08c-8.091-37.816-45.489-62.045-83.368-54.004l-.128.027c-18.401 3.905-34.168 14.739-44.396 30.505-10.206 15.734-13.667 34.495-9.744 52.826l23.813 111.307h-20.76-.004c-4.066 0-7.727 2.463-9.259 6.229l-.004.01-38.051 88.962c-1.625 3.801-.77 8.292 2.367 11.244 1.907 1.795 4.493 2.688 7.112 2.688h27.84v154.191c0 5.185 3.963 9.51 9.128 9.962l195.593 17.124c.031.005.796.04.871.04s.839-.035.872-.038l195.593-17.124c5.165-.452 9.128-4.777 9.128-9.962v-154.191h27.84c2.619 0 5.205-.893 7.112-2.688 3.137-2.953 3.993-7.444 2.367-11.245zm-151.229-296.752h57.221v28.139h-57.221zm8.018 48.139h41.184l25.563 47.813c9.004 16.842 13.764 35.829 13.764 54.911v50.688h-119.838v-50.688c0-19.08 4.76-38.068 13.765-54.911zm-79.395 60.651c8.877 0 16.654 1.669 25.087 5.477-3.311 11.894-5.018 24.228-5.018 36.595v50.688h-84.328c-2.97-7.739-4.472-15.902-4.472-24.346-.001-37.724 30.832-68.414 68.731-68.414zm-199.397-22.729c-2.803-13.103-.329-26.512 6.967-37.758 7.316-11.279 18.599-19.03 31.761-21.823l.128-.027c27.112-5.753 53.879 11.572 59.668 38.628l17.543 81.733c-3.494 9.481-5.402 19.719-5.402 30.392 0 8.351 1.139 16.494 3.396 24.346h-89.352zm-9.903 135.49h173.841l-29.57 69.134h-173.841zm3.401 89.134h147.468c4.003 0 7.62-2.387 9.194-6.067l18.931-44.26v210.727l-175.593-15.372zm362.884-20c-5.522 0-10 4.478-10 10s4.478 10 10 10h8.302v145.028l-175.593 15.373v-210.728l18.931 44.259c1.574 3.681 5.191 6.067 9.194 6.067h48.754c5.522 0 10-4.478 10-10s-4.478-10-10-10h-42.155l-29.57-69.134h173.841l29.57 69.134h-41.274z"/><path d="m393.819 312.37c-3.525-2.356-8.268-2.182-11.636.379-3.37 2.563-4.743 7.146-3.383 11.147 1.324 3.897 5.027 6.651 9.144 6.788 4.117.136 7.982-2.376 9.556-6.174 1.792-4.326.265-9.565-3.681-12.14z"/></g></g></g></svg>