<svg width="17" height="17" viewBox="0 0 17 17" fill="none" xmlns="http://www.w3.org/2000/svg">
<path d="M3.31833 7.14083C4.63833 9.735 6.765 11.8525 9.35917 13.1817L11.3758 11.165C11.6233 10.9175 11.99 10.835 12.3108 10.945C13.3375 11.2842 14.4467 11.4675 15.5833 11.4675C16.0875 11.4675 16.5 11.88 16.5 12.3842V15.5833C16.5 16.0875 16.0875 16.5 15.5833 16.5C6.97583 16.5 0 9.52417 0 0.916667C0 0.4125 0.4125 0 0.916667 0H4.125C4.62917 0 5.04167 0.4125 5.04167 0.916667C5.04167 2.0625 5.225 3.1625 5.56417 4.18917C5.665 4.51 5.59167 4.8675 5.335 5.12417L3.31833 7.14083Z" fill="#939393"/>
</svg>
