<svg width="11" height="17" viewBox="0 0 11 17" fill="none" xmlns="http://www.w3.org/2000/svg">
<path d="M10.772 0.64779C10.0456 0.211902 9.27107 0 8.4043 0C7.36727 0 6.34931 0.30536 5.36489 0.600669C4.40319 0.889154 3.49481 1.16164 2.5957 1.1617C2.59583 1.1617 2.59557 1.1617 2.5957 1.1617C1.99459 1.1617 1.44997 1.03446 0.93928 0.774029V0.46964C0.93928 0.210273 0.729006 0 0.46964 0C0.210273 0 0 0.210273 0 0.46964V1.05046V7.43431V15.5607C0 15.8201 0.210273 16.0304 0.46964 16.0304C0.729006 16.0304 0.93928 15.8201 0.93928 15.5607V8.18592C1.45798 8.3863 2.00543 8.48483 2.59573 8.48483C3.63273 8.48483 4.65059 8.17947 5.63496 7.88416C6.59672 7.59564 7.50516 7.32313 8.4043 7.32313C9.09599 7.32313 9.71237 7.49123 10.2887 7.83707C10.4338 7.92411 10.6145 7.92643 10.7618 7.84305C10.909 7.75967 11 7.60356 11 7.43437V1.05049C11 0.885522 10.9135 0.732638 10.772 0.64779ZM5.3651 6.98452C4.40331 7.27303 3.49487 7.54555 2.59576 7.54555C1.99444 7.54555 1.45003 7.41849 0.939311 7.15806V1.80235C1.45792 2.0027 2.00527 2.10101 2.59539 2.10098C2.59526 2.10098 2.59548 2.10098 2.59539 2.10098C3.63229 2.10092 4.65053 1.79559 5.6348 1.50031C6.59659 1.2118 7.50513 0.93928 8.4043 0.93928C9.00563 0.93928 9.55003 1.06633 10.0607 1.32673V6.68251C9.54205 6.48213 8.99457 6.38385 8.4043 6.38385C7.36733 6.38385 6.34944 6.68921 5.3651 6.98452Z" fill="#CC1408"/>
</svg>
