<svg width="30" height="30" viewBox="0 0 30 30" fill="none" xmlns="http://www.w3.org/2000/svg">
<path d="M23.8462 6.16C21.4887 3.80125 18.3538 2.50125 15.0138 2.5C8.13125 2.5 2.53 8.09875 2.5275 14.9812C2.52625 17.1812 3.10125 19.3287 4.19375 21.2212L2.5 27.5L9.04125 25.9538C10.865 26.9488 12.9175 27.4725 15.0075 27.4738H15.0125C21.8938 27.4738 27.495 21.8738 27.4988 14.9925C27.5013 11.6562 26.2037 8.52 23.8462 6.16ZM21.1225 19.4425C20.8625 20.1712 19.5888 20.8737 19.0163 20.925C18.4438 20.9775 17.9075 21.1837 15.2725 20.145C12.1013 18.895 10.0988 15.6438 9.94375 15.4362C9.7875 15.2275 8.67 13.745 8.67 12.21C8.67 10.675 9.47625 9.92 9.7625 9.60875C10.0487 9.29625 10.3862 9.21875 10.595 9.21875C10.8025 9.21875 11.0113 9.21875 11.1925 9.22625C11.415 9.235 11.6612 9.24625 11.895 9.765C12.1725 10.3825 12.7787 11.925 12.8562 12.0813C12.9338 12.2375 12.9862 12.42 12.8825 12.6275C12.7787 12.835 12.7262 12.965 12.5712 13.1475C12.415 13.33 12.2437 13.5538 12.1037 13.6938C11.9475 13.8488 11.785 14.0188 11.9662 14.33C12.1487 14.6425 12.7738 15.6638 13.7013 16.49C14.8938 17.5525 15.8975 17.8812 16.21 18.0387C16.5225 18.195 16.7037 18.1687 16.8862 17.96C17.0687 17.7525 17.6662 17.05 17.8737 16.7375C18.0813 16.425 18.29 16.4775 18.5763 16.5813C18.8625 16.685 20.3962 17.44 20.7075 17.5962C21.02 17.7525 21.2275 17.83 21.305 17.96C21.3825 18.0887 21.3825 18.7137 21.1225 19.4425Z" fill="#1673A6"/>
</svg>
