<?xml version="1.0" encoding="utf-8"?>
<!-- Generator: Adobe Illustrator 24.0.1, SVG Export Plug-In . SVG Version: 6.00 Build 0)  -->
<svg version="1.1" id="Capa_1" xmlns="http://www.w3.org/2000/svg" xmlns:xlink="http://www.w3.org/1999/xlink" x="0px" y="0px"
	 viewBox="0 0 512 512" style="enable-background:new 0 0 512 512;" xml:space="preserve">
<style type="text/css">
	.st0{fill:#FFFFFF;}
</style>
<g>
	<g>
		<path class="st0" d="M304,96H112c-8.8,0-16,7.2-16,16s7.2,16,16,16h192c8.8,0,16-7.2,16-16S312.8,96,304,96z"/>
	</g>
</g>
<g>
	<g>
		<path class="st0" d="M240,160H112c-8.8,0-16,7.2-16,16s7.2,16,16,16h128c8.8,0,16-7.2,16-16S248.8,160,240,160z"/>
	</g>
</g>
<g>
	<g>
		<path class="st0" d="M352,0H64C28.7,0,0,28.7,0,64v320c0,6.2,3.6,11.9,9.2,14.5c2.1,1,4.5,1.5,6.8,1.5c3.7,0,7.3-1.3,10.2-3.7
			l91.6-76.3H352c35.3,0,64-28.7,64-64V64C416,28.7,387.3,0,352,0z M384,256c0,17.6-14.3,32-32,32H112c-3.7,0-7.4,1.3-10.2,3.7
			L32,349.9V64c0-17.6,14.3-32,32-32h288c17.7,0,32,14.4,32,32V256z"/>
	</g>
</g>
<g>
	<g>
		<path class="st0" d="M448,128c-8.8,0-16,7.2-16,16s7.2,16,16,16c17.7,0,32,14.4,32,32v270.7l-54-43.2c-2.8-2.2-6.4-3.5-10-3.5H192
			c-17.7,0-32-14.4-32-32v-16c0-8.8-7.2-16-16-16s-16,7.2-16,16v16c0,35.3,28.7,64,64,64h218.4l75.6,60.5c2.9,2.3,6.5,3.5,10,3.5
			c2.3,0,4.7-0.5,6.9-1.6c5.5-2.7,9.1-8.3,9.1-14.4V192C512,156.7,483.3,128,448,128z"/>
	</g>
</g>
</svg>
