<svg id="Capa_1" enable-background="new 0 0 512 512" height="512" viewBox="0 0 512 512" width="512" xmlns="http://www.w3.org/2000/svg"><g><path d="m1.183 350.719c1.74 3.251 5.129 5.281 8.817 5.281h50v146c0 5.522 4.477 10 10 10h372c5.523 0 10-4.478 10-10v-146h50c3.688 0 7.077-2.03 8.817-5.281 1.74-3.252 1.549-7.197-.497-10.266l-60-90c-1.854-2.782-4.977-4.453-8.32-4.453h-38c-5.523 0-10 4.477-10 10s4.477 10 10 10h32.648l46.667 70h-161.963l-46.667-70h39.315c5.523 0 10-4.477 10-10s-4.477-10-10-10c-11.42 0-232.948 0-244 0-3.344 0-6.466 1.671-8.32 4.453l-60 90c-2.046 3.069-2.237 7.014-.497 10.266zm78.817 5.281h116c3.344 0 6.466-1.671 8.32-4.453l41.68-62.52v202.973h-166zm227.68-4.453c1.854 2.782 4.977 4.453 8.32 4.453h116v136h-166v-202.973zm-232.328-85.547h161.963l-46.667 70h-161.963z"/><path d="m196 25.03c-8.168-12.004-22.269-25.03-45-25.03-32.045 0-55 25.825-55 56.97 0 34.579 27.985 57.29 70.347 91.666 7.423 6.023 15.098 12.252 23.252 19.046 1.854 1.545 4.127 2.317 6.401 2.317s4.547-.772 6.401-2.317c8.154-6.794 15.829-13.023 23.252-19.046 42.362-34.376 70.347-57.087 70.347-91.666 0-31.17-22.979-56.97-55-56.97-22.731 0-36.831 13.026-45 25.03zm80 31.94c0 25.052-25.042 45.375-62.949 76.136-5.509 4.47-11.156 9.053-17.051 13.909-5.895-4.855-11.542-9.438-17.051-13.909-37.906-30.761-62.949-51.083-62.949-76.136 0-21.076 15.047-36.97 35-36.97 26.107 0 35.034 29.068 35.391 30.268 1.233 4.283 5.152 7.232 9.609 7.232s8.376-2.95 9.609-7.232c.088-.303 9.022-30.268 35.391-30.268 19.953 0 35 15.894 35 36.97z"/><path d="m376 200c2.351 0 4.701-.825 6.586-2.475 5.432-4.754 10.552-9.117 15.502-13.336 27.815-23.705 47.912-40.831 47.912-66.309 0-24.045-17.57-42.88-40-42.88-14.274 0-23.844 7.259-30 15.034-6.156-7.775-15.725-15.034-30-15.034-22.43 0-40 18.835-40 42.88 0 25.478 20.097 42.604 47.912 66.309 4.951 4.219 10.07 8.582 15.502 13.336 1.885 1.65 4.236 2.475 6.586 2.475zm-50-82.12c0-11.092 7.009-22.88 20-22.88 14.74 0 20.121 18.078 20.369 18.94 1.206 4.32 5.136 7.335 9.624 7.335 4.504 0 8.445-2.985 9.637-7.329.221-.773 5.591-18.946 20.37-18.946 12.991 0 20 11.788 20 22.88 0 16.244-15.389 29.359-40.884 51.086-2.965 2.527-5.991 5.105-9.116 7.795-3.125-2.69-6.15-5.268-9.116-7.795-25.495-21.727-40.884-34.842-40.884-51.086z"/><circle cx="359" cy="256" r="10"/></g></svg>