<svg width="630" height="445" viewBox="0 0 630 445" fill="none" xmlns="http://www.w3.org/2000/svg">
<path d="M590.083 442.313C598.985 442.313 606.995 436.466 610.225 427.54C622.988 392.26 630 353.901 630 313.763C630 140.611 499.349 0.0282849 338.365 3.8312e-05C177.224 -0.0847014 46.5723 140.414 46.5723 313.706C46.5723 359.522 55.7113 403.05 72.0986 442.285L590.083 442.313Z" fill="#191929"/>
<path d="M461.203 268.65H167.682V445H461.203V268.65Z" fill="#F8F8F8"/>
<path d="M170.754 293.06C183.988 293.06 194.702 281.479 194.702 267.173V240.18H146.806V267.173C146.806 281.479 157.519 293.06 170.754 293.06Z" fill="#8CB592"/>
<path d="M218.65 293.06C231.884 293.06 242.598 281.479 242.598 267.173V240.18H194.702V267.173C194.702 281.479 205.415 293.06 218.65 293.06Z" fill="#AFD3B4"/>
<path d="M266.546 291.983C279.781 291.983 290.494 280.403 290.494 266.097V239.104H242.598V266.097C242.598 280.403 253.312 291.983 266.546 291.983Z" fill="#D92733"/>
<path d="M362.338 291.983C375.573 291.983 386.286 280.403 386.286 266.097V239.104H338.39V266.097C338.39 280.403 349.104 291.983 362.338 291.983Z" fill="#D92733"/>
<path d="M458.131 291.983C471.365 291.983 482.079 280.403 482.079 266.097V239.104H434.183V266.097C434.183 280.403 444.896 291.983 458.131 291.983Z" fill="#D92733"/>
<path d="M482.079 239.67L458.262 161.699H314.442H170.622L146.806 239.67H314.442H482.079Z" fill="#D92733"/>
<path d="M434.182 239.67L417.167 161.699H314.442H211.717L194.702 239.67H314.442H434.182Z" fill="#064789"/>
<path d="M386.286 239.67L376.072 161.699H314.442H252.813L242.598 239.67H314.442H386.286Z" fill="#D92733"/>
<path d="M314.442 291.984C327.677 291.984 338.39 280.404 338.39 266.098V239.105H290.494V266.098C290.494 280.404 301.208 291.984 314.442 291.984Z" fill="#064789"/>
<path d="M410.235 291.984C423.469 291.984 434.183 280.404 434.183 266.098V239.105H386.287V266.098C386.287 280.404 397 291.984 410.235 291.984Z" fill="#064789"/>
<path d="M334.54 161.699H314.005H293.471L290.057 239.67H314.005H337.953L334.54 161.699Z" fill="#064789"/>
<path d="M434.182 322.864C434.182 316.137 429.141 310.687 422.917 310.687H370.977C364.754 310.687 359.712 316.137 359.712 322.864V445H434.182V322.864Z" fill="#064789"/>
<path d="M329.462 387.182C334.399 387.182 338.39 382.867 338.39 377.531V320.366C338.39 315.029 334.399 310.715 329.462 310.715H207.175C202.238 310.715 198.247 315.029 198.247 320.366V377.531C198.247 382.867 202.238 387.182 207.175 387.182H329.462Z" fill="#064789"/>
<path d="M303.335 111.629C297.558 105.385 287.58 105.782 279.781 112.084C273.558 110.579 266.021 113.049 260.323 119.208C259.588 120.003 258.879 120.854 258.249 121.734H256.148C256.017 121.564 255.885 121.422 255.754 121.28C251.71 116.909 244.673 117.363 239.316 122.018C234.957 120.485 229.39 122.103 225.294 126.559C225.031 126.843 224.769 127.127 224.532 127.439H307.064C308.193 121.507 307.038 115.632 303.335 111.629Z" fill="#DEF3DF"/>
<path d="M500.381 97.5792C494.604 91.3347 484.626 91.7321 476.827 98.0333C470.604 96.529 463.068 98.9984 457.369 105.158C456.634 105.952 455.925 106.804 455.295 107.684H453.194C453.063 107.514 452.932 107.372 452.8 107.23C448.756 102.859 441.719 103.313 436.362 107.968C432.003 106.435 426.436 108.053 422.34 112.509C422.078 112.793 421.815 113.077 421.579 113.389H504.11C505.265 107.428 504.084 101.581 500.381 97.5792Z" fill="#DEF3DF"/>
<path d="M413.924 31.0187C404.261 20.5734 387.613 21.2546 374.562 31.7567C364.164 29.2305 351.559 33.3746 342.08 43.6496C340.82 45.0121 339.69 46.4029 338.64 47.8505H335.121C334.911 47.595 334.675 47.3395 334.465 47.0841C327.716 39.7894 315.926 40.5274 306.998 48.333C299.698 45.7784 290.429 48.4749 283.549 55.9115C283.103 56.3941 282.682 56.8766 282.289 57.3875H420.174C422.091 47.4815 420.121 37.689 413.924 31.0187Z" fill="#DEF3DF"/>
<path d="M225.399 268.99L206.256 207.255C201.714 192.581 187.035 184.69 173.459 189.6C159.883 194.511 152.583 210.377 157.126 225.052L176.269 286.787L225.399 268.99Z" fill="#F32B38"/>
<path d="M82.1113 444.465H135.875C156.491 444.465 173.237 426.494 173.237 404.305V343.258C173.237 328.428 162.047 316.399 148.25 316.399H69.7892C55.9928 316.399 44.8029 328.428 44.8029 343.258V404.305C44.7502 426.494 61.4692 444.465 82.1113 444.465Z" fill="#064789"/>
<path d="M78.2437 386.84H147.541C166.158 386.84 181.257 370.52 181.257 350.395V202.657C181.257 195.277 175.743 189.316 168.916 189.316H56.869C50.0417 189.316 44.5273 195.277 44.5273 202.657V350.395C44.5273 370.52 59.6262 386.84 78.2437 386.84Z" fill="#F32B38"/>
<path d="M112.905 217.587C125.64 217.587 135.96 206.432 135.96 192.666V128.717H89.8496V192.694C89.8496 206.432 100.169 217.587 112.905 217.587Z" fill="white"/>
<path d="M135.962 161.898L94.9189 151.083C94.9189 151.083 98.2013 176.657 135.935 185.57L135.962 161.898Z" fill="white"/>
<path d="M132.888 175.635C156.652 175.635 175.926 154.802 175.926 129.114V63.9727H89.8496V129.114C89.8496 154.802 109.124 175.635 132.888 175.635Z" fill="white"/>
<path d="M137.011 129.114V63.9727H89.8496V129.114C89.8496 147.251 99.4341 162.919 113.43 170.611C127.4 162.919 137.011 147.223 137.011 129.114Z" fill="white"/>
<path d="M101.247 372.564C115.387 372.564 126.849 360.174 126.849 344.889C126.849 329.605 115.387 317.215 101.247 317.215C87.1071 317.215 75.6445 329.605 75.6445 344.889C75.6445 360.174 87.1071 372.564 101.247 372.564Z" fill="#FF1D2F"/>
<path d="M175.243 361.125C177.029 356.555 178.027 351.531 178.027 346.252V276.342H100.931C99.2502 276.342 97.8848 277.818 97.8848 279.635V357.804C97.8848 359.621 99.2502 361.097 100.931 361.097L175.243 361.125Z" fill="#FF1D2F"/>
<path d="M164.794 111.431V105.953C164.794 104.448 163.665 103.228 162.273 103.228C160.881 103.228 159.752 104.448 159.752 105.953V111.431C159.752 112.935 160.881 114.156 162.273 114.156C163.665 114.156 164.794 112.935 164.794 111.431Z" fill="#191929"/>
<path d="M129.974 111.431V105.953C129.974 104.448 128.845 103.228 127.453 103.228C126.062 103.228 124.933 104.448 124.933 105.953V111.431C124.933 112.935 126.062 114.156 127.453 114.156C128.845 114.156 129.974 112.935 129.974 111.431Z" fill="#191929"/>
<path d="M143.181 295.586L146.7 291.471V273.816V256.133L143.181 252.017H126.927H110.647L107.154 256.133V273.816V291.471L110.647 295.586H126.927H143.181Z" fill="#E6E7E8"/>
<path d="M140.078 247.589C140.078 245.347 138.397 243.53 136.323 243.53H117.416C115.342 243.53 113.661 245.347 113.661 247.589V252.017H140.051L140.078 247.589Z" fill="#FF6062"/>
<path d="M134.333 285.737C136.329 285.737 137.957 283.977 137.957 281.82V265.783C137.957 263.626 136.329 261.866 134.333 261.866H119.497C117.501 261.866 115.873 263.626 115.873 265.783V281.82C115.873 283.977 117.501 285.737 119.497 285.737H134.333Z" fill="#FFCE60"/>
<path d="M187.035 248.213H144.364V310.743H187.035V248.213Z" fill="#FF6766"/>
<path d="M183.673 241.742C185.012 241.742 186.088 240.578 186.088 239.131C186.088 237.683 185.012 236.519 183.673 236.519H147.698C146.359 236.519 145.282 237.683 145.282 239.131C145.282 240.578 146.359 241.742 147.698 241.742H183.673Z" fill="#FE6257"/>
<path d="M165.686 317.243H183.359L187.009 310.743H165.686H144.364L148.014 317.243H165.686Z" fill="#CEC8C8"/>
<path d="M187.009 248.213L183.359 241.742H165.686H148.014L144.364 248.213H165.686H187.009Z" fill="#CEC8C8"/>
<path d="M223.56 242.537H183.856V300.724H223.56V242.537Z" fill="#79B18C"/>
<path d="M224.427 242.537C225.976 242.537 227.21 241.174 227.21 239.528C227.21 237.882 225.95 236.519 224.427 236.519H182.964C181.415 236.519 180.181 237.882 180.181 239.528C180.181 241.174 181.441 242.537 182.964 242.537H224.427Z" fill="#D8DBE0"/>
<path d="M224.426 306.77C225.976 306.77 227.21 305.407 227.21 303.761C227.21 302.087 225.949 300.752 224.426 300.752H182.964C181.414 300.752 180.18 302.115 180.18 303.761C180.18 305.436 181.441 306.77 182.964 306.77H224.426Z" fill="#CEC8C8"/>
<path d="M272.98 287.043V227.692C272.98 225.847 271.536 224.371 269.724 224.371H254.52V290.364H269.724C271.536 290.364 272.98 288.888 272.98 287.043Z" fill="#DDE8F2"/>
<path d="M254.546 290.364V224.371H226.79C225.005 224.371 223.534 225.847 223.534 227.692V287.043C223.534 288.888 224.978 290.364 226.79 290.364H254.546Z" fill="#BEC8D1"/>
<path d="M264.814 224.371C265.47 224.371 265.995 223.832 265.995 223.179C265.995 222.526 265.47 221.987 264.814 221.987H249.006C248.349 221.987 247.824 222.526 247.824 223.179C247.824 223.832 248.349 224.371 249.006 224.371H264.814Z" fill="#D8DBE0"/>
<path d="M193.547 354.171V269.558H104.293C102.613 269.558 101.247 271.034 101.247 272.851V350.879C101.247 352.695 102.613 354.171 104.293 354.171H193.547Z" fill="#73151B"/>
<path d="M189.161 354.171H276.288C277.969 354.171 279.334 352.695 279.334 350.879V272.851C279.334 271.034 277.969 269.558 276.288 269.558H168.889C167.209 269.558 165.843 271.034 165.843 272.851V328.966C165.843 342.903 176.294 354.171 189.161 354.171Z" fill="#F32B38"/>
<path d="M107.05 331.464L44.5273 310.261V348.863C44.5273 350.765 44.6586 352.61 44.895 354.426L95.417 371.542L107.05 331.464Z" fill="#FF1D2F"/>
<path d="M101.247 364.702C115.387 364.702 126.849 352.311 126.849 337.027C126.849 321.743 115.387 309.353 101.247 309.353C87.1071 309.353 75.6445 321.743 75.6445 337.027C75.6445 352.311 87.1071 364.702 101.247 364.702Z" fill="white"/>
<path d="M164.714 137.714H125.3C125.3 149.494 134.123 159.031 145.02 159.031C155.891 159.031 164.714 149.465 164.714 137.714Z" fill="#191929"/>
<path d="M147.358 158.861C147.384 158.407 147.41 157.953 147.41 157.498C147.41 148.16 140.399 140.582 131.76 140.582C129.607 140.582 127.559 141.064 125.694 141.916C127.506 151.68 135.463 159.003 145.021 159.003C145.809 159.031 146.57 158.974 147.358 158.861Z" fill="#F65866"/>
<path d="M159.094 142.596C160.46 142.596 161.536 141.404 161.536 139.957V137.743H129.632V139.957C129.632 141.433 130.735 142.596 132.074 142.596H159.094Z" fill="#FEF4FF"/>
<path d="M17.271 244.807L1.30564 299.816C-3.36844 315.881 4.9031 333.025 19.7919 338.049L95.4174 363.68L107.05 323.573L41.613 301.405L54.3748 257.41L17.271 244.807Z" fill="white"/>
<path d="M70.7333 232.772C75.0135 218.012 67.4247 202.287 53.7701 197.661C40.1155 193.034 25.5681 201.237 21.2879 215.997L3.24805 278.13L52.6935 294.905L70.7333 232.772Z" fill="#F32B38"/>
<path d="M162.665 79.3004C176.095 79.3004 186.981 67.5328 186.981 53.0168C186.981 38.5007 176.095 26.7332 162.665 26.7332C149.236 26.7332 138.35 38.5007 138.35 53.0168C138.35 67.5328 149.236 79.3004 162.665 79.3004Z" fill="#191929"/>
<path d="M162.036 89.2914C171.303 89.2914 178.816 81.171 178.816 71.154C178.816 61.137 171.303 53.0166 162.036 53.0166C152.769 53.0166 145.257 61.137 145.257 71.154C145.257 81.171 152.769 89.2914 162.036 89.2914Z" fill="#191929"/>
<path d="M96.7039 93.1516C107.32 93.1516 115.925 83.8494 115.925 72.3745C115.925 60.8996 107.32 51.5974 96.7039 51.5974C86.0882 51.5974 77.4824 60.8996 77.4824 72.3745C77.4824 83.8494 86.0882 93.1516 96.7039 93.1516Z" fill="#191929"/>
<path d="M102.429 67.0383C107.186 67.0383 111.042 62.8701 111.042 57.7284C111.042 52.5867 107.186 48.4185 102.429 48.4185C97.6725 48.4185 93.8164 52.5867 93.8164 57.7284C93.8164 62.8701 97.6725 67.0383 102.429 67.0383Z" fill="#191929"/>
<path d="M195.411 48.7305C195.411 47.4816 195.332 46.2327 195.174 45.0122C191.971 55.4859 182.833 63.0361 172.093 63.0361C159.83 63.0361 149.668 53.2152 148.013 40.4424C147.226 43.0537 146.779 45.8353 146.779 48.7305C146.779 63.2631 157.677 75.0141 171.095 75.0141C184.513 75.0141 195.411 63.2631 195.411 48.7305Z" fill="#191929"/>
<path d="M152.977 75.0146V36.7529H108.94C104.109 36.7529 100.196 40.9821 100.196 46.2048V65.6195C100.196 70.8421 104.109 75.0713 108.94 75.0713H152.977V75.0146Z" fill="#191929"/>
<path d="M89.8501 113.616C96.0571 113.616 101.089 108.177 101.089 101.468C101.089 94.7586 96.0571 89.3196 89.8501 89.3196C83.6431 89.3196 78.6113 94.7586 78.6113 101.468C78.6113 108.177 83.6431 113.616 89.8501 113.616Z" fill="white"/>
<path d="M514.797 312.617H554.921H557.73C578.317 312.617 595.018 294.564 595.018 272.311V269.274V225.903C595.018 201.947 577.057 182.533 554.895 182.533C532.732 182.533 514.771 201.947 514.771 225.903C492.608 225.903 474.647 245.318 474.647 269.274C474.674 293.202 492.635 312.617 514.797 312.617Z" fill="#00B355"/>
<path d="M515.821 334.132V445H528.846V379.433H541.476C559.359 379.433 573.88 363.765 573.88 344.407H560.855C560.855 355.959 552.19 365.354 541.476 365.354H528.846V334.132H515.821Z" fill="#CD5300"/>
<path d="M520.863 344.407H586.956C603.158 344.407 616.288 330.215 616.288 312.702C616.288 295.189 603.158 280.997 586.956 280.997H520.863C504.661 280.997 491.532 295.189 491.532 312.702C491.558 330.215 504.661 344.407 520.863 344.407Z" fill="#00B355"/>
<path d="M466.534 334.132H499.252H501.563C518.369 334.132 531.997 319.4 531.997 301.235V298.737V263.37C531.997 243.842 517.345 228.004 499.278 228.004C481.212 228.004 466.56 243.842 466.56 263.37C448.494 263.37 433.841 279.209 433.841 298.737C433.815 318.293 448.468 334.132 466.534 334.132Z" fill="#00B355"/>
<path d="M517.318 258.659C517.318 260.873 518.999 262.69 521.047 262.69C523.095 262.69 524.775 260.873 524.775 258.659C524.775 248.554 517.16 240.323 507.812 240.323C505.764 240.323 504.083 242.14 504.083 244.354C504.083 246.567 505.764 248.384 507.812 248.384C513.038 248.384 517.318 252.982 517.318 258.659Z" fill="#D2EBD1"/>
<path d="M576.453 220.113C576.453 222.838 578.501 225.052 581.022 225.052C583.542 225.052 585.591 222.838 585.591 220.113C585.591 207.71 576.269 197.633 564.794 197.633C562.273 197.633 560.225 199.847 560.225 202.572C560.225 205.297 562.273 207.511 564.794 207.511C571.227 207.511 576.453 213.159 576.453 220.113Z" fill="#D2EBD1"/>
<path d="M526.351 445H551.744H561.407C565.845 440.175 568.602 433.504 568.602 426.153C568.602 411.393 557.547 399.444 543.892 399.444C542.527 399.444 541.214 399.557 539.927 399.784C536.461 389.566 527.375 382.3 516.714 382.3C508.469 382.3 501.195 386.643 496.705 393.341C493.948 392.177 490.928 391.553 487.777 391.553C474.122 391.553 463.067 403.503 463.067 418.262C463.067 433.022 474.122 444.972 487.777 444.972H526.351V445Z" fill="#00B355"/>
</svg>
