<svg width="800" height="800" viewBox="0 0 800 800" fill="none" xmlns="http://www.w3.org/2000/svg">
<path d="M660.8 83.5938V716.406C660.8 762.5 623.367 800 577.361 800H221.817C175.811 800 138.378 762.5 138.378 716.406V83.5938C138.378 37.5 175.811 0 221.817 0H577.359C623.367 0 660.8 37.5 660.8 83.5938Z" fill="#191929"/>
<path d="M660.8 83.5938V716.406C660.8 762.5 623.367 800 577.361 800H546.128C592.134 800 629.567 762.5 629.567 716.406V83.5938C629.567 37.5 592.134 0 546.128 0H577.361C623.367 0 660.8 37.5 660.8 83.5938Z" fill="#31313A"/>
<path d="M614.012 81.6562V718.344C614.012 738.812 597.397 755.469 576.955 755.469H222.223C201.781 755.469 185.166 738.812 185.166 718.344V81.6562C185.166 61.1875 201.781 44.5312 222.223 44.5312H259.25C264.325 44.5312 268.839 47.8125 270.4 52.6563L279.567 81.1406C281.847 88.2188 288.344 92.9688 295.761 92.9688H503.414C510.816 92.9688 517.328 88.2188 519.608 81.1406L528.775 52.6563C530.336 47.8125 534.834 44.5312 539.925 44.5312H576.952C597.397 44.5312 614.012 61.1875 614.012 81.6562V81.6562Z" fill="white"/>
<path d="M614.012 81.6562V718.344C614.012 738.812 597.397 755.469 576.955 755.469H545.722C566.164 755.469 582.78 738.812 582.78 718.344V81.6562C582.78 61.1875 566.164 44.5312 545.722 44.5312H576.955C597.397 44.5312 614.012 61.1875 614.012 81.6562V81.6562Z" fill="#BAE1E5"/>
<path d="M463.014 34.3516H336.16C329.691 34.3516 324.447 39.5984 324.447 46.0703C324.447 52.5422 329.691 57.7891 336.16 57.7891H463.014C469.483 57.7891 474.727 52.5422 474.727 46.0703C474.727 39.5984 469.483 34.3516 463.014 34.3516Z" fill="#415E6F"/>
<path d="M463.014 679.253H336.16C329.691 679.253 324.447 684.5 324.447 690.972C324.447 697.444 329.691 702.69 336.16 702.69H463.014C469.483 702.69 474.727 697.444 474.727 690.972C474.727 684.5 469.483 679.253 463.014 679.253Z" fill="#56788B"/>
<path d="M268.214 188.594V306.75C268.214 326.5 252.161 342.578 232.436 342.578H80.55L18.8016 389.578C16.725 391.172 14.2266 391.969 11.7109 391.969C9.93125 391.969 8.15 391.578 6.51094 390.75C2.52969 388.781 0 384.703 0 380.25V188.594C0 168.844 16.0531 152.766 35.7781 152.766H232.437C252.161 152.766 268.214 168.844 268.214 188.594V188.594Z" fill="#F32B38"/>
<path d="M268.214 188.594V306.75C268.214 326.5 252.161 342.578 232.436 342.578H201.203C220.927 342.578 236.981 326.5 236.981 306.75V188.594C236.981 168.844 220.928 152.766 201.203 152.766H232.436C252.161 152.766 268.214 168.844 268.214 188.594V188.594Z" fill="#BA1A25"/>
<path d="M196.481 208.506H71.733C65.2643 208.506 60.0205 213.753 60.0205 220.225C60.0205 226.697 65.2643 231.944 71.733 231.944H196.48C202.949 231.944 208.192 226.697 208.192 220.225C208.192 213.753 202.949 208.506 196.481 208.506V208.506Z" fill="white"/>
<path d="M180.888 261.631H71.733C65.2643 261.631 60.0205 266.878 60.0205 273.35C60.0205 279.822 65.2643 285.069 71.733 285.069H180.888C187.356 285.069 192.6 279.822 192.6 273.35C192.6 266.878 187.356 261.631 180.888 261.631Z" fill="white"/>
<path d="M753.133 218.828V581.578C753.133 588.047 747.883 593.297 741.416 593.297H483.347L439.072 649C436.853 651.797 433.48 653.437 429.902 653.437C426.323 653.437 422.95 651.797 420.731 649L376.456 593.297H336.025C316.372 593.297 300.391 577.312 300.391 557.672V218.828C300.391 199.188 316.372 183.203 336.025 183.203H717.497C737.15 183.203 753.133 199.188 753.133 218.828V218.828Z" fill="#0E58A4"/>
<path d="M753.134 218.828V581.578C753.134 588.047 747.884 593.297 741.416 593.297H710.171C716.638 593.297 721.888 588.047 721.888 581.578V218.828C721.888 199.188 705.907 183.203 686.254 183.203H717.499C737.151 183.203 753.134 199.188 753.134 218.828V218.828Z" fill="#064789"/>
<path d="M398.525 294.834H656.284C662.755 294.834 668.001 289.589 668.001 283.115C668.001 276.642 662.756 271.396 656.284 271.396H398.525C392.054 271.396 386.808 276.642 386.808 283.115C386.808 289.589 392.053 294.834 398.525 294.834V294.834Z" fill="white"/>
<path d="M398.525 347.959H656.286C662.756 347.959 668.003 342.714 668.003 336.24C668.003 329.767 662.758 324.521 656.286 324.521H398.525C392.054 324.521 386.808 329.767 386.808 336.24C386.808 342.714 392.053 347.959 398.525 347.959Z" fill="white"/>
<path d="M656.286 483.896H603.134C596.664 483.896 591.417 489.142 591.417 495.615C591.417 502.089 596.662 507.334 603.134 507.334H656.286C662.756 507.334 668.003 502.089 668.003 495.615C668.003 489.142 662.756 483.896 656.286 483.896Z" fill="white"/>
<path d="M548.565 483.896H398.525C392.054 483.896 386.808 489.142 386.808 495.615C386.808 502.089 392.053 507.334 398.525 507.334H548.565C555.036 507.334 560.283 502.089 560.283 495.615C560.283 489.142 555.036 483.896 548.565 483.896Z" fill="white"/>
<path d="M656.285 377.646H514.855C508.385 377.646 503.138 382.892 503.138 389.365C503.138 395.839 508.383 401.084 514.855 401.084H656.285C662.755 401.084 668.002 395.839 668.002 389.365C668.002 382.892 662.755 377.646 656.285 377.646V377.646Z" fill="white"/>
<path d="M398.525 401.084H457.979C464.45 401.084 469.697 395.839 469.697 389.365C469.697 382.892 464.451 377.646 457.979 377.646H398.525C392.054 377.646 386.808 382.892 386.808 389.365C386.808 395.839 392.053 401.084 398.525 401.084V401.084Z" fill="white"/>
<path d="M398.525 454.209H656.284C662.755 454.209 668.001 448.964 668.001 442.49C668.001 436.017 662.756 430.771 656.284 430.771H398.525C392.054 430.771 386.808 436.017 386.808 442.49C386.808 448.964 392.053 454.209 398.525 454.209V454.209Z" fill="white"/>
</svg>
