<svg width="30" height="30" viewBox="0 0 30 30" fill="none" xmlns="http://www.w3.org/2000/svg">
<path d="M20.8247 2H9.17486C5.21865 2 2 5.18343 2 9.09617V20.618C2 24.5309 5.21865 27.7141 9.17486 27.7141H20.8247C24.7812 27.7141 27.9998 24.5307 27.9998 20.618V9.09617C28 5.18343 24.7812 2 20.8247 2ZM25.6932 20.618C25.6932 23.2728 23.5092 25.4327 20.8248 25.4327H9.17486C6.49063 25.4328 4.30683 23.2728 4.30683 20.618V9.09617C4.30683 6.44144 6.49063 4.28148 9.17486 4.28148H20.8247C23.5091 4.28148 25.693 6.44144 25.693 9.09617V20.618H25.6932Z" fill="white"/>
<path d="M15.0003 8.23169C11.3061 8.23169 8.30078 11.204 8.30078 14.8576C8.30078 18.511 11.3061 21.4831 15.0003 21.4831C18.6944 21.4831 21.6998 18.511 21.6998 14.8576C21.6998 11.204 18.6944 8.23169 15.0003 8.23169ZM15.0003 19.2015C12.5783 19.2015 10.6076 17.2528 10.6076 14.8574C10.6076 12.4619 12.5781 10.513 15.0003 10.513C17.4225 10.513 19.393 12.4619 19.393 14.8574C19.393 17.2528 17.4223 19.2015 15.0003 19.2015Z" fill="white"/>
<path d="M21.9807 6.29712C21.5363 6.29712 21.0997 6.47507 20.7858 6.78688C20.4704 7.09716 20.2891 7.52912 20.2891 7.97021C20.2891 8.40992 20.4705 8.84173 20.7858 9.15353C21.0995 9.46382 21.5363 9.64329 21.9807 9.64329C22.4267 9.64329 22.8619 9.46382 23.1772 9.15353C23.4925 8.84173 23.6724 8.40977 23.6724 7.97021C23.6724 7.52912 23.4925 7.09716 23.1772 6.78688C22.8635 6.47507 22.4267 6.29712 21.9807 6.29712Z" fill="white"/>
</svg>
