<svg width="30" height="30" viewBox="0 0 30 30" fill="none" xmlns="http://www.w3.org/2000/svg">
<path d="M30 5.84123C28.8844 6.32308 27.6956 6.64246 26.4562 6.79754C27.7312 6.048 28.7044 4.87015 29.1619 3.45046C27.9731 4.14831 26.6606 4.64123 25.2619 4.91631C24.1331 3.73292 22.5244 3 20.7694 3C17.3644 3 14.6231 5.72123 14.6231 9.05723C14.6231 9.53723 14.6644 9.99877 14.7656 10.4382C9.6525 10.1926 5.12813 7.77969 2.08875 4.104C1.55812 5.01046 1.24688 6.048 1.24688 7.16492C1.24688 9.26215 2.34375 11.1212 3.97875 12.1975C2.99062 12.1791 2.02125 11.8966 1.2 11.4517C1.2 11.4702 1.2 11.4942 1.2 11.5182C1.2 14.4609 3.33187 16.9052 6.1275 17.4683C5.62687 17.6031 5.08125 17.6677 4.515 17.6677C4.12125 17.6677 3.72375 17.6455 3.35062 17.5643C4.1475 19.9625 6.40875 21.7255 9.0975 21.7828C7.005 23.3945 4.34813 24.3655 1.47188 24.3655C0.9675 24.3655 0.48375 24.3434 0 24.2825C2.72437 26.0123 5.95313 27 9.435 27C20.7525 27 26.94 17.7692 26.94 9.768C26.94 9.50031 26.9306 9.24185 26.9175 8.98523C28.1381 8.13231 29.1637 7.06708 30 5.84123Z" fill="white"/>
</svg>
