<svg width="26" height="25" viewBox="0 0 26 25" fill="none" xmlns="http://www.w3.org/2000/svg">
<path d="M23.7142 3.57144H17.4643V2.67857C17.4643 1.19923 16.2651 0 14.7857 0H11.2143C9.73494 0 8.53571 1.19923 8.53571 2.67857V3.57144H2.2857C1.79257 3.57144 1.39282 3.97119 1.39282 4.46432C1.39282 4.95744 1.79262 5.35714 2.2857 5.35714H3.25621L4.96426 24.1884C5.00638 24.6495 5.39409 25.0019 5.85714 25H20.1429C20.6059 25.0019 20.9936 24.6495 21.0357 24.1884L22.7437 5.35714H23.7143C24.2074 5.35714 24.6072 4.95739 24.6072 4.46426C24.6072 3.97113 24.2074 3.57144 23.7142 3.57144ZM10.3214 2.67857C10.3214 2.18544 10.7211 1.78569 11.2143 1.78569H14.7857C15.2788 1.78569 15.6786 2.18544 15.6786 2.67857V3.57144H10.3215V2.67857H10.3214ZM19.3277 23.2142H6.67232L5.05357 5.35714H9.42858H20.9509L19.3277 23.2142Z" fill="white"/>
<path d="M10.3216 20.476C10.3215 20.4748 10.3215 20.4736 10.3214 20.4723L9.42848 7.97238C9.39348 7.47925 8.96533 7.10791 8.47225 7.14291C7.97913 7.17791 7.60779 7.60606 7.64279 8.09914L8.53566 20.5991C8.56899 21.0673 8.95916 21.4298 9.42854 21.4286H9.49283C9.98476 21.3944 10.3558 20.9679 10.3216 20.476Z" fill="white"/>
<path d="M12.9999 7.14282C12.5068 7.14282 12.1071 7.54257 12.1071 8.0357V20.5357C12.1071 21.0288 12.5068 21.4285 12.9999 21.4285C13.4931 21.4285 13.8928 21.0288 13.8928 20.5357V8.0357C13.8928 7.54257 13.4931 7.14282 12.9999 7.14282Z" fill="white"/>
<path d="M17.5276 7.14291C17.0344 7.10791 16.6063 7.47925 16.5713 7.97238L15.6785 20.4723C15.6423 20.9641 16.0117 21.3921 16.5034 21.4283C16.505 21.4284 16.5064 21.4285 16.5079 21.4286H16.5713C17.0407 21.4298 17.4309 21.0673 17.4642 20.5991L18.3571 8.09914C18.3921 7.60606 18.0207 7.17796 17.5276 7.14291Z" fill="white"/>
</svg>
